<svg xmlns="http://www.w3.org/2000/svg" width="64" height="20" viewBox="0 0 64 20" shape-rendering="crispEdges"><rect x="8" y="0" width="4" height="4" fill="#0e2a44"></rect><rect x="12" y="0" width="4" height="4" fill="#0e2a44"></rect><rect x="48" y="0" width="4" height="4" fill="#0e2a44"></rect><rect x="52" y="0" width="4" height="4" fill="#0e2a44"></rect><rect x="4" y="4" width="4" height="4" fill="#0e2a44"></rect><rect x="8" y="4" width="4" height="4" fill="#0e2a44"></rect><rect x="12" y="4" width="4" height="4" fill="#0e2a44"></rect><rect x="16" y="4" width="4" height="4" fill="#0e2a44"></rect><rect x="44" y="4" width="4" height="4" fill="#0e2a44"></rect><rect x="48" y="4" width="4" height="4" fill="#0e2a44"></rect><rect x="52" y="4" width="4" height="4" fill="#0e2a44"></rect><rect x="56" y="4" width="4" height="4" fill="#0e2a44"></rect><rect x="0" y="8" width="4" height="4" fill="#0e2a44"></rect><rect x="4" y="8" width="4" height="4" fill="#0e2a44"></rect><rect x="16" y="8" width="4" height="4" fill="#0e2a44"></rect><rect x="20" y="8" width="4" height="4" fill="#0e2a44"></rect><rect x="40" y="8" width="4" height="4" fill="#0e2a44"></rect><rect x="44" y="8" width="4" height="4" fill="#0e2a44"></rect><rect x="56" y="8" width="4" height="4" fill="#0e2a44"></rect><rect x="60" y="8" width="4" height="4" fill="#0e2a44"></rect><rect x="16" y="12" width="4" height="4" fill="#0e2a44"></rect><rect x="20" y="12" width="4" height="4" fill="#0e2a44"></rect><rect x="24" y="12" width="4" height="4" fill="#0e2a44"></rect><rect x="36" y="12" width="4" height="4" fill="#0e2a44"></rect><rect x="40" y="12" width="4" height="4" fill="#0e2a44"></rect><rect x="44" y="12" width="4" height="4" fill="#0e2a44"></rect><rect x="24" y="16" width="4" height="4" fill="#0e2a44"></rect><rect x="28" y="16" width="4" height="4" fill="#0e2a44"></rect><rect x="32" y="16" width="4" height="4" fill="#0e2a44"></rect><rect x="36" y="16" width="4" height="4" fill="#0e2a44"></rect></svg>