<svg xmlns="http://www.w3.org/2000/svg" width="1600" height="136" viewBox="0 0 1600 136" shape-rendering="crispEdges"><defs><pattern id="dz1" width="8" height="8" patternUnits="userSpaceOnUse"><rect width="4" height="4" fill="#0a2136"></rect><rect x="4" y="4" width="4" height="4" fill="#0a2136"></rect></pattern></defs><g fill="#0e2a44"><rect x="8" y="76" width="104" height="60"></rect><g fill="#cfe4f8" fill-opacity="0.36"><rect x="12" y="96" width="4" height="4"></rect><rect x="20" y="96" width="4" height="4"></rect><rect x="28" y="96" width="4" height="4"></rect><rect x="36" y="96" width="4" height="4"></rect><rect x="44" y="96" width="4" height="4"></rect><rect x="52" y="96" width="4" height="4"></rect><rect x="60" y="96" width="4" height="4"></rect><rect x="76" y="96" width="4" height="4"></rect><rect x="84" y="96" width="4" height="4"></rect><rect x="92" y="96" width="4" height="4"></rect><rect x="12" y="108" width="4" height="4"></rect><rect x="20" y="108" width="4" height="4"></rect><rect x="36" y="108" width="4" height="4"></rect><rect x="60" y="108" width="4" height="4"></rect><rect x="68" y="108" width="4" height="4"></rect><rect x="84" y="108" width="4" height="4"></rect><rect x="92" y="108" width="4" height="4"></rect><rect x="100" y="108" width="4" height="4"></rect><rect x="12" y="120" width="4" height="4"></rect><rect x="20" y="120" width="4" height="4"></rect><rect x="28" y="120" width="4" height="4"></rect><rect x="36" y="120" width="4" height="4"></rect><rect x="52" y="120" width="4" height="4"></rect><rect x="68" y="120" width="4" height="4"></rect><rect x="76" y="120" width="4" height="4"></rect><rect x="100" y="120" width="4" height="4"></rect></g><rect x="104" y="76" width="8" height="60" fill="#0a2136"></rect><rect x="100" y="76" width="4" height="60" fill="url(#dz1)"></rect><rect x="28" y="44" width="68" height="32"></rect><g fill="#cfe4f8" fill-opacity="0.36"><rect x="32" y="52" width="4" height="4"></rect><rect x="40" y="52" width="4" height="4"></rect><rect x="48" y="52" width="4" height="4"></rect><rect x="64" y="52" width="4" height="4"></rect><rect x="72" y="52" width="4" height="4"></rect></g><rect x="88" y="44" width="8" height="32" fill="#0a2136"></rect><rect x="84" y="44" width="4" height="32" fill="url(#dz1)"></rect><rect x="120" y="116" width="100" height="20"></rect><rect x="120" y="80" width="44" height="56"></rect><g fill="#cfe4f8" fill-opacity="0.36"><rect x="132" y="88" width="4" height="4"></rect><rect x="148" y="88" width="4" height="4"></rect><rect x="156" y="88" width="4" height="4"></rect><rect x="132" y="100" width="4" height="4"></rect><rect x="156" y="100" width="4" height="4"></rect></g><rect x="156" y="80" width="8" height="36" fill="#0a2136"></rect><rect x="152" y="80" width="4" height="36" fill="url(#dz1)"></rect><rect x="176" y="88" width="44" height="48"></rect><g fill="#cfe4f8" fill-opacity="0.2"><rect x="180" y="96" width="4" height="4"></rect><rect x="180" y="104" width="4" height="4"></rect><rect x="188" y="96" width="4" height="4"></rect><rect x="188" y="104" width="4" height="4"></rect><rect x="196" y="96" width="4" height="4"></rect><rect x="196" y="104" width="4" height="4"></rect><rect x="204" y="96" width="4" height="4"></rect><rect x="204" y="104" width="4" height="4"></rect><rect x="212" y="96" width="4" height="4"></rect><rect x="212" y="104" width="4" height="4"></rect></g><rect x="212" y="88" width="8" height="28" fill="#0a2136"></rect><rect x="208" y="88" width="4" height="28" fill="url(#dz1)"></rect><rect x="236" y="20" width="88" height="116"></rect><rect x="232" y="16" width="96" height="4"></rect><rect x="244" y="8" width="12" height="8"></rect><rect x="244" y="16" width="4" height="4"></rect><rect x="252" y="16" width="4" height="4"></rect><g fill="#cfe4f8" fill-opacity="0.36"><rect x="272" y="28" width="4" height="4"></rect><rect x="280" y="28" width="4" height="4"></rect><rect x="296" y="28" width="4" height="4"></rect><rect x="312" y="28" width="4" height="4"></rect><rect x="240" y="40" width="4" height="4"></rect><rect x="248" y="40" width="4" height="4"></rect><rect x="256" y="40" width="4" height="4"></rect><rect x="264" y="40" width="4" height="4"></rect><rect x="272" y="40" width="4" height="4"></rect><rect x="280" y="40" width="4" height="4"></rect><rect x="288" y="40" width="4" height="4"></rect><rect x="296" y="40" width="4" height="4"></rect><rect x="312" y="40" width="4" height="4"></rect><rect x="240" y="52" width="4" height="4"></rect><rect x="256" y="52" width="4" height="4"></rect><rect x="264" y="52" width="4" height="4"></rect><rect x="272" y="52" width="4" height="4"></rect><rect x="280" y="52" width="4" height="4"></rect><rect x="296" y="52" width="4" height="4"></rect><rect x="304" y="52" width="4" height="4"></rect><rect x="312" y="52" width="4" height="4"></rect><rect x="240" y="64" width="4" height="4"></rect><rect x="248" y="64" width="4" height="4"></rect><rect x="264" y="64" width="4" height="4"></rect><rect x="304" y="64" width="4" height="4"></rect><rect x="312" y="64" width="4" height="4"></rect><rect x="248" y="76" width="4" height="4"></rect><rect x="256" y="76" width="4" height="4"></rect><rect x="264" y="76" width="4" height="4"></rect><rect x="280" y="76" width="4" height="4"></rect><rect x="288" y="76" width="4" height="4"></rect><rect x="296" y="76" width="4" height="4"></rect><rect x="304" y="76" width="4" height="4"></rect><rect x="240" y="88" width="4" height="4"></rect><rect x="280" y="88" width="4" height="4"></rect><rect x="288" y="88" width="4" height="4"></rect><rect x="296" y="88" width="4" height="4"></rect><rect x="304" y="88" width="4" height="4"></rect><rect x="312" y="88" width="4" height="4"></rect><rect x="240" y="100" width="4" height="4"></rect><rect x="248" y="100" width="4" height="4"></rect><rect x="264" y="100" width="4" height="4"></rect><rect x="272" y="100" width="4" height="4"></rect><rect x="280" y="100" width="4" height="4"></rect><rect x="288" y="100" width="4" height="4"></rect><rect x="304" y="100" width="4" height="4"></rect><rect x="312" y="100" width="4" height="4"></rect><rect x="240" y="112" width="4" height="4"></rect><rect x="248" y="112" width="4" height="4"></rect><rect x="256" y="112" width="4" height="4"></rect><rect x="264" y="112" width="4" height="4"></rect><rect x="280" y="112" width="4" height="4"></rect><rect x="296" y="112" width="4" height="4"></rect><rect x="304" y="112" width="4" height="4"></rect></g><rect x="316" y="20" width="8" height="116" fill="#0a2136"></rect><rect x="312" y="20" width="4" height="116" fill="url(#dz1)"></rect><rect x="332" y="72" width="88" height="64"></rect><g fill="#cfe4f8" fill-opacity="0.2"><rect x="336" y="80" width="4" height="4"></rect><rect x="336" y="88" width="4" height="4"></rect><rect x="336" y="96" width="4" height="4"></rect><rect x="336" y="104" width="4" height="4"></rect><rect x="336" y="112" width="4" height="4"></rect><rect x="336" y="120" width="4" height="4"></rect><rect x="344" y="80" width="4" height="4"></rect><rect x="344" y="88" width="4" height="4"></rect><rect x="344" y="96" width="4" height="4"></rect><rect x="344" y="104" width="4" height="4"></rect><rect x="344" y="112" width="4" height="4"></rect><rect x="344" y="120" width="4" height="4"></rect><rect x="352" y="80" width="4" height="4"></rect><rect x="352" y="88" width="4" height="4"></rect><rect x="352" y="96" width="4" height="4"></rect><rect x="352" y="104" width="4" height="4"></rect><rect x="352" y="112" width="4" height="4"></rect><rect x="352" y="120" width="4" height="4"></rect><rect x="360" y="80" width="4" height="4"></rect><rect x="360" y="88" width="4" height="4"></rect><rect x="360" y="96" width="4" height="4"></rect><rect x="360" y="104" width="4" height="4"></rect><rect x="360" y="112" width="4" height="4"></rect><rect x="360" y="120" width="4" height="4"></rect><rect x="368" y="80" width="4" height="4"></rect><rect x="368" y="88" width="4" height="4"></rect><rect x="368" y="96" width="4" height="4"></rect><rect x="368" y="104" width="4" height="4"></rect><rect x="368" y="112" width="4" height="4"></rect><rect x="368" y="120" width="4" height="4"></rect><rect x="376" y="80" width="4" height="4"></rect><rect x="376" y="88" width="4" height="4"></rect><rect x="376" y="96" width="4" height="4"></rect><rect x="376" y="104" width="4" height="4"></rect><rect x="376" y="112" width="4" height="4"></rect><rect x="376" y="120" width="4" height="4"></rect><rect x="384" y="80" width="4" height="4"></rect><rect x="384" y="88" width="4" height="4"></rect><rect x="384" y="96" width="4" height="4"></rect><rect x="384" y="104" width="4" height="4"></rect><rect x="384" y="112" width="4" height="4"></rect><rect x="384" y="120" width="4" height="4"></rect><rect x="392" y="80" width="4" height="4"></rect><rect x="392" y="88" width="4" height="4"></rect><rect x="392" y="96" width="4" height="4"></rect><rect x="392" y="104" width="4" height="4"></rect><rect x="392" y="112" width="4" height="4"></rect><rect x="392" y="120" width="4" height="4"></rect><rect x="400" y="80" width="4" height="4"></rect><rect x="400" y="88" width="4" height="4"></rect><rect x="400" y="96" width="4" height="4"></rect><rect x="400" y="104" width="4" height="4"></rect><rect x="400" y="112" width="4" height="4"></rect><rect x="400" y="120" width="4" height="4"></rect><rect x="408" y="80" width="4" height="4"></rect><rect x="408" y="88" width="4" height="4"></rect><rect x="408" y="96" width="4" height="4"></rect><rect x="408" y="104" width="4" height="4"></rect><rect x="408" y="112" width="4" height="4"></rect><rect x="408" y="120" width="4" height="4"></rect></g><rect x="412" y="72" width="8" height="64" fill="#0a2136"></rect><rect x="408" y="72" width="4" height="64" fill="url(#dz1)"></rect><rect x="348" y="40" width="60" height="32"></rect><g fill="#cfe4f8" fill-opacity="0.2"><rect x="352" y="48" width="4" height="4"></rect><rect x="352" y="56" width="4" height="4"></rect><rect x="360" y="48" width="4" height="4"></rect><rect x="360" y="56" width="4" height="4"></rect><rect x="368" y="48" width="4" height="4"></rect><rect x="368" y="56" width="4" height="4"></rect><rect x="376" y="48" width="4" height="4"></rect><rect x="376" y="56" width="4" height="4"></rect><rect x="384" y="48" width="4" height="4"></rect><rect x="384" y="56" width="4" height="4"></rect><rect x="392" y="48" width="4" height="4"></rect><rect x="392" y="56" width="4" height="4"></rect><rect x="400" y="48" width="4" height="4"></rect><rect x="400" y="56" width="4" height="4"></rect></g><rect x="400" y="40" width="8" height="32" fill="#0a2136"></rect><rect x="396" y="40" width="4" height="32" fill="url(#dz1)"></rect><rect x="428" y="108" width="100" height="28"></rect><rect x="428" y="48" width="44" height="88"></rect><g fill="#cfe4f8" fill-opacity="0.36"><rect x="432" y="56" width="4" height="4"></rect><rect x="448" y="56" width="4" height="4"></rect><rect x="456" y="56" width="4" height="4"></rect><rect x="464" y="56" width="4" height="4"></rect><rect x="432" y="68" width="4" height="4"></rect><rect x="440" y="68" width="4" height="4"></rect><rect x="432" y="80" width="4" height="4"></rect><rect x="440" y="80" width="4" height="4"></rect><rect x="448" y="80" width="4" height="4"></rect><rect x="432" y="92" width="4" height="4"></rect><rect x="440" y="92" width="4" height="4"></rect><rect x="448" y="92" width="4" height="4"></rect><rect x="456" y="92" width="4" height="4"></rect><rect x="464" y="92" width="4" height="4"></rect></g><rect x="464" y="48" width="8" height="60" fill="#0a2136"></rect><rect x="460" y="48" width="4" height="60" fill="url(#dz1)"></rect><rect x="456" y="28" width="4" height="20"></rect><rect x="452" y="28" width="12" height="4"></rect><rect x="484" y="56" width="44" height="80"></rect><g fill="#cfe4f8" fill-opacity="0.36"><rect x="488" y="64" width="4" height="4"></rect><rect x="496" y="64" width="4" height="4"></rect><rect x="504" y="64" width="4" height="4"></rect><rect x="512" y="64" width="4" height="4"></rect><rect x="520" y="64" width="4" height="4"></rect><rect x="488" y="76" width="4" height="4"></rect><rect x="496" y="76" width="4" height="4"></rect><rect x="504" y="76" width="4" height="4"></rect><rect x="512" y="76" width="4" height="4"></rect><rect x="520" y="76" width="4" height="4"></rect><rect x="488" y="88" width="4" height="4"></rect><rect x="496" y="88" width="4" height="4"></rect><rect x="504" y="88" width="4" height="4"></rect><rect x="512" y="88" width="4" height="4"></rect><rect x="520" y="88" width="4" height="4"></rect></g><rect x="520" y="56" width="8" height="52" fill="#0a2136"></rect><rect x="516" y="56" width="4" height="52" fill="url(#dz1)"></rect><rect x="532" y="108" width="84" height="28"></rect><rect x="532" y="84" width="36" height="52"></rect><g fill="#cfe4f8" fill-opacity="0.36"><rect x="536" y="92" width="4" height="4"></rect><rect x="552" y="92" width="4" height="4"></rect></g><rect x="560" y="84" width="8" height="24" fill="#0a2136"></rect><rect x="556" y="84" width="4" height="24" fill="url(#dz1)"></rect><rect x="548" y="72" width="12" height="8"></rect><rect x="548" y="80" width="4" height="4"></rect><rect x="556" y="80" width="4" height="4"></rect><rect x="580" y="100" width="36" height="36"></rect><rect x="608" y="100" width="8" height="8" fill="#0a2136"></rect><rect x="604" y="100" width="4" height="8" fill="url(#dz1)"></rect><rect x="624" y="60" width="76" height="76"></rect><g fill="#cfe4f8" fill-opacity="0.36"><rect x="628" y="68" width="4" height="4"></rect><rect x="636" y="68" width="4" height="4"></rect><rect x="644" y="68" width="4" height="4"></rect><rect x="652" y="68" width="4" height="4"></rect><rect x="668" y="68" width="4" height="4"></rect><rect x="676" y="68" width="4" height="4"></rect><rect x="684" y="68" width="4" height="4"></rect><rect x="628" y="80" width="4" height="4"></rect><rect x="644" y="80" width="4" height="4"></rect><rect x="676" y="80" width="4" height="4"></rect><rect x="684" y="80" width="4" height="4"></rect><rect x="692" y="80" width="4" height="4"></rect><rect x="628" y="92" width="4" height="4"></rect><rect x="660" y="92" width="4" height="4"></rect><rect x="668" y="92" width="4" height="4"></rect><rect x="676" y="92" width="4" height="4"></rect><rect x="684" y="92" width="4" height="4"></rect><rect x="692" y="92" width="4" height="4"></rect><rect x="628" y="116" width="4" height="4"></rect><rect x="636" y="116" width="4" height="4"></rect><rect x="652" y="116" width="4" height="4"></rect><rect x="660" y="116" width="4" height="4"></rect><rect x="668" y="116" width="4" height="4"></rect><rect x="676" y="116" width="4" height="4"></rect><rect x="692" y="116" width="4" height="4"></rect></g><rect x="692" y="60" width="8" height="76" fill="#0a2136"></rect><rect x="688" y="60" width="4" height="76" fill="url(#dz1)"></rect><rect x="640" y="20" width="44" height="40"></rect><g fill="#cfe4f8" fill-opacity="0.36"><rect x="644" y="28" width="4" height="4"></rect><rect x="668" y="28" width="4" height="4"></rect><rect x="652" y="40" width="4" height="4"></rect><rect x="660" y="40" width="4" height="4"></rect><rect x="668" y="40" width="4" height="4"></rect></g><rect x="676" y="20" width="8" height="40" fill="#0a2136"></rect><rect x="672" y="20" width="4" height="40" fill="url(#dz1)"></rect><rect x="708" y="72" width="64" height="64"></rect><rect x="704" y="68" width="72" height="4"></rect><g fill="#cfe4f8" fill-opacity="0.2"><rect x="712" y="80" width="4" height="4"></rect><rect x="712" y="88" width="4" height="4"></rect><rect x="712" y="96" width="4" height="4"></rect><rect x="712" y="104" width="4" height="4"></rect><rect x="712" y="112" width="4" height="4"></rect><rect x="712" y="120" width="4" height="4"></rect><rect x="720" y="80" width="4" height="4"></rect><rect x="720" y="88" width="4" height="4"></rect><rect x="720" y="96" width="4" height="4"></rect><rect x="720" y="104" width="4" height="4"></rect><rect x="720" y="112" width="4" height="4"></rect><rect x="720" y="120" width="4" height="4"></rect><rect x="728" y="80" width="4" height="4"></rect><rect x="728" y="88" width="4" height="4"></rect><rect x="728" y="96" width="4" height="4"></rect><rect x="728" y="104" width="4" height="4"></rect><rect x="728" y="112" width="4" height="4"></rect><rect x="728" y="120" width="4" height="4"></rect><rect x="736" y="80" width="4" height="4"></rect><rect x="736" y="88" width="4" height="4"></rect><rect x="736" y="96" width="4" height="4"></rect><rect x="736" y="104" width="4" height="4"></rect><rect x="736" y="112" width="4" height="4"></rect><rect x="736" y="120" width="4" height="4"></rect><rect x="744" y="80" width="4" height="4"></rect><rect x="744" y="88" width="4" height="4"></rect><rect x="744" y="96" width="4" height="4"></rect><rect x="744" y="104" width="4" height="4"></rect><rect x="744" y="112" width="4" height="4"></rect><rect x="744" y="120" width="4" height="4"></rect><rect x="752" y="80" width="4" height="4"></rect><rect x="752" y="88" width="4" height="4"></rect><rect x="752" y="96" width="4" height="4"></rect><rect x="752" y="104" width="4" height="4"></rect><rect x="752" y="112" width="4" height="4"></rect><rect x="752" y="120" width="4" height="4"></rect><rect x="760" y="80" width="4" height="4"></rect><rect x="760" y="88" width="4" height="4"></rect><rect x="760" y="96" width="4" height="4"></rect><rect x="760" y="104" width="4" height="4"></rect><rect x="760" y="112" width="4" height="4"></rect><rect x="760" y="120" width="4" height="4"></rect></g><rect x="764" y="72" width="8" height="64" fill="#0a2136"></rect><rect x="760" y="72" width="4" height="64" fill="url(#dz1)"></rect><rect x="780" y="64" width="68" height="72"></rect><g fill="#cfe4f8" fill-opacity="0.2"><rect x="784" y="72" width="4" height="4"></rect><rect x="784" y="80" width="4" height="4"></rect><rect x="784" y="88" width="4" height="4"></rect><rect x="784" y="96" width="4" height="4"></rect><rect x="784" y="104" width="4" height="4"></rect><rect x="784" y="112" width="4" height="4"></rect><rect x="784" y="120" width="4" height="4"></rect><rect x="792" y="72" width="4" height="4"></rect><rect x="792" y="80" width="4" height="4"></rect><rect x="792" y="88" width="4" height="4"></rect><rect x="792" y="96" width="4" height="4"></rect><rect x="792" y="104" width="4" height="4"></rect><rect x="792" y="112" width="4" height="4"></rect><rect x="792" y="120" width="4" height="4"></rect><rect x="800" y="72" width="4" height="4"></rect><rect x="800" y="80" width="4" height="4"></rect><rect x="800" y="88" width="4" height="4"></rect><rect x="800" y="96" width="4" height="4"></rect><rect x="800" y="104" width="4" height="4"></rect><rect x="800" y="112" width="4" height="4"></rect><rect x="800" y="120" width="4" height="4"></rect><rect x="808" y="72" width="4" height="4"></rect><rect x="808" y="80" width="4" height="4"></rect><rect x="808" y="88" width="4" height="4"></rect><rect x="808" y="96" width="4" height="4"></rect><rect x="808" y="104" width="4" height="4"></rect><rect x="808" y="112" width="4" height="4"></rect><rect x="808" y="120" width="4" height="4"></rect><rect x="816" y="72" width="4" height="4"></rect><rect x="816" y="80" width="4" height="4"></rect><rect x="816" y="88" width="4" height="4"></rect><rect x="816" y="96" width="4" height="4"></rect><rect x="816" y="104" width="4" height="4"></rect><rect x="816" y="112" width="4" height="4"></rect><rect x="816" y="120" width="4" height="4"></rect><rect x="824" y="72" width="4" height="4"></rect><rect x="824" y="80" width="4" height="4"></rect><rect x="824" y="88" width="4" height="4"></rect><rect x="824" y="96" width="4" height="4"></rect><rect x="824" y="104" width="4" height="4"></rect><rect x="824" y="112" width="4" height="4"></rect><rect x="824" y="120" width="4" height="4"></rect><rect x="832" y="72" width="4" height="4"></rect><rect x="832" y="80" width="4" height="4"></rect><rect x="832" y="88" width="4" height="4"></rect><rect x="832" y="96" width="4" height="4"></rect><rect x="832" y="104" width="4" height="4"></rect><rect x="832" y="112" width="4" height="4"></rect><rect x="832" y="120" width="4" height="4"></rect><rect x="840" y="72" width="4" height="4"></rect><rect x="840" y="80" width="4" height="4"></rect><rect x="840" y="88" width="4" height="4"></rect><rect x="840" y="96" width="4" height="4"></rect><rect x="840" y="104" width="4" height="4"></rect><rect x="840" y="112" width="4" height="4"></rect><rect x="840" y="120" width="4" height="4"></rect></g><rect x="840" y="64" width="8" height="72" fill="#0a2136"></rect><rect x="836" y="64" width="4" height="72" fill="url(#dz1)"></rect><rect x="792" y="28" width="44" height="36"></rect><g fill="#cfe4f8" fill-opacity="0.36"><rect x="796" y="36" width="4" height="4"></rect><rect x="804" y="36" width="4" height="4"></rect><rect x="804" y="48" width="4" height="4"></rect><rect x="812" y="48" width="4" height="4"></rect><rect x="828" y="48" width="4" height="4"></rect></g><rect x="828" y="28" width="8" height="36" fill="#0a2136"></rect><rect x="824" y="28" width="4" height="36" fill="url(#dz1)"></rect><rect x="792" y="24" width="4" height="4"></rect><rect x="800" y="24" width="4" height="4"></rect><rect x="808" y="24" width="4" height="4"></rect><rect x="816" y="24" width="4" height="4"></rect><rect x="824" y="24" width="4" height="4"></rect><rect x="856" y="56" width="108" height="80"></rect><g fill="#cfe4f8" fill-opacity="0.36"><rect x="860" y="64" width="4" height="4"></rect><rect x="876" y="64" width="4" height="4"></rect><rect x="900" y="64" width="4" height="4"></rect><rect x="908" y="64" width="4" height="4"></rect><rect x="916" y="64" width="4" height="4"></rect><rect x="924" y="64" width="4" height="4"></rect><rect x="932" y="64" width="4" height="4"></rect><rect x="940" y="64" width="4" height="4"></rect><rect x="948" y="64" width="4" height="4"></rect><rect x="956" y="64" width="4" height="4"></rect><rect x="860" y="88" width="4" height="4"></rect><rect x="916" y="88" width="4" height="4"></rect><rect x="924" y="88" width="4" height="4"></rect><rect x="932" y="88" width="4" height="4"></rect><rect x="940" y="88" width="4" height="4"></rect><rect x="860" y="112" width="4" height="4"></rect><rect x="868" y="112" width="4" height="4"></rect><rect x="892" y="112" width="4" height="4"></rect><rect x="900" y="112" width="4" height="4"></rect><rect x="908" y="112" width="4" height="4"></rect><rect x="916" y="112" width="4" height="4"></rect><rect x="924" y="112" width="4" height="4"></rect><rect x="932" y="112" width="4" height="4"></rect><rect x="940" y="112" width="4" height="4"></rect><rect x="948" y="112" width="4" height="4"></rect><rect x="956" y="112" width="4" height="4"></rect></g><rect x="956" y="56" width="8" height="80" fill="#0a2136"></rect><rect x="952" y="56" width="4" height="80" fill="url(#dz1)"></rect><rect x="876" y="12" width="68" height="44"></rect><g fill="#cfe4f8" fill-opacity="0.2"><rect x="880" y="20" width="4" height="4"></rect><rect x="880" y="28" width="4" height="4"></rect><rect x="880" y="36" width="4" height="4"></rect><rect x="880" y="44" width="4" height="4"></rect><rect x="888" y="20" width="4" height="4"></rect><rect x="888" y="28" width="4" height="4"></rect><rect x="888" y="36" width="4" height="4"></rect><rect x="888" y="44" width="4" height="4"></rect><rect x="896" y="20" width="4" height="4"></rect><rect x="896" y="28" width="4" height="4"></rect><rect x="896" y="36" width="4" height="4"></rect><rect x="896" y="44" width="4" height="4"></rect><rect x="904" y="20" width="4" height="4"></rect><rect x="904" y="28" width="4" height="4"></rect><rect x="904" y="36" width="4" height="4"></rect><rect x="904" y="44" width="4" height="4"></rect><rect x="912" y="20" width="4" height="4"></rect><rect x="912" y="28" width="4" height="4"></rect><rect x="912" y="36" width="4" height="4"></rect><rect x="912" y="44" width="4" height="4"></rect><rect x="920" y="20" width="4" height="4"></rect><rect x="920" y="28" width="4" height="4"></rect><rect x="920" y="36" width="4" height="4"></rect><rect x="920" y="44" width="4" height="4"></rect><rect x="928" y="20" width="4" height="4"></rect><rect x="928" y="28" width="4" height="4"></rect><rect x="928" y="36" width="4" height="4"></rect><rect x="928" y="44" width="4" height="4"></rect><rect x="936" y="20" width="4" height="4"></rect><rect x="936" y="28" width="4" height="4"></rect><rect x="936" y="36" width="4" height="4"></rect><rect x="936" y="44" width="4" height="4"></rect></g><rect x="936" y="12" width="8" height="44" fill="#0a2136"></rect><rect x="932" y="12" width="4" height="44" fill="url(#dz1)"></rect><rect x="876" y="8" width="4" height="4"></rect><rect x="884" y="8" width="4" height="4"></rect><rect x="892" y="8" width="4" height="4"></rect><rect x="900" y="8" width="4" height="4"></rect><rect x="908" y="8" width="4" height="4"></rect><rect x="916" y="8" width="4" height="4"></rect><rect x="924" y="8" width="4" height="4"></rect><rect x="932" y="8" width="4" height="4"></rect><rect x="920" y="0" width="12" height="8"></rect><rect x="920" y="8" width="4" height="4"></rect><rect x="928" y="8" width="4" height="4"></rect><rect x="968" y="108" width="112" height="28"></rect><rect x="968" y="60" width="48" height="76"></rect><g fill="#cfe4f8" fill-opacity="0.36"><rect x="972" y="68" width="4" height="4"></rect><rect x="980" y="68" width="4" height="4"></rect><rect x="988" y="68" width="4" height="4"></rect><rect x="996" y="68" width="4" height="4"></rect><rect x="1004" y="68" width="4" height="4"></rect><rect x="972" y="80" width="4" height="4"></rect><rect x="980" y="80" width="4" height="4"></rect><rect x="996" y="80" width="4" height="4"></rect><rect x="1004" y="80" width="4" height="4"></rect><rect x="972" y="92" width="4" height="4"></rect><rect x="988" y="92" width="4" height="4"></rect><rect x="996" y="92" width="4" height="4"></rect><rect x="1004" y="92" width="4" height="4"></rect></g><rect x="1008" y="60" width="8" height="48" fill="#0a2136"></rect><rect x="1004" y="60" width="4" height="48" fill="url(#dz1)"></rect><rect x="980" y="48" width="12" height="8"></rect><rect x="980" y="56" width="4" height="4"></rect><rect x="988" y="56" width="4" height="4"></rect><rect x="1032" y="80" width="48" height="56"></rect><g fill="#cfe4f8" fill-opacity="0.36"><rect x="1036" y="88" width="4" height="4"></rect><rect x="1044" y="88" width="4" height="4"></rect><rect x="1060" y="88" width="4" height="4"></rect><rect x="1068" y="88" width="4" height="4"></rect></g><rect x="1072" y="80" width="8" height="28" fill="#0a2136"></rect><rect x="1068" y="80" width="4" height="28" fill="url(#dz1)"></rect><rect x="1088" y="72" width="68" height="64"></rect><g fill="#cfe4f8" fill-opacity="0.2"><rect x="1092" y="80" width="4" height="4"></rect><rect x="1092" y="88" width="4" height="4"></rect><rect x="1092" y="96" width="4" height="4"></rect><rect x="1092" y="104" width="4" height="4"></rect><rect x="1092" y="112" width="4" height="4"></rect><rect x="1092" y="120" width="4" height="4"></rect><rect x="1100" y="80" width="4" height="4"></rect><rect x="1100" y="88" width="4" height="4"></rect><rect x="1100" y="96" width="4" height="4"></rect><rect x="1100" y="104" width="4" height="4"></rect><rect x="1100" y="112" width="4" height="4"></rect><rect x="1100" y="120" width="4" height="4"></rect><rect x="1108" y="80" width="4" height="4"></rect><rect x="1108" y="88" width="4" height="4"></rect><rect x="1108" y="96" width="4" height="4"></rect><rect x="1108" y="104" width="4" height="4"></rect><rect x="1108" y="112" width="4" height="4"></rect><rect x="1108" y="120" width="4" height="4"></rect><rect x="1116" y="80" width="4" height="4"></rect><rect x="1116" y="88" width="4" height="4"></rect><rect x="1116" y="96" width="4" height="4"></rect><rect x="1116" y="104" width="4" height="4"></rect><rect x="1116" y="112" width="4" height="4"></rect><rect x="1116" y="120" width="4" height="4"></rect><rect x="1124" y="80" width="4" height="4"></rect><rect x="1124" y="88" width="4" height="4"></rect><rect x="1124" y="96" width="4" height="4"></rect><rect x="1124" y="104" width="4" height="4"></rect><rect x="1124" y="112" width="4" height="4"></rect><rect x="1124" y="120" width="4" height="4"></rect><rect x="1132" y="80" width="4" height="4"></rect><rect x="1132" y="88" width="4" height="4"></rect><rect x="1132" y="96" width="4" height="4"></rect><rect x="1132" y="104" width="4" height="4"></rect><rect x="1132" y="112" width="4" height="4"></rect><rect x="1132" y="120" width="4" height="4"></rect><rect x="1140" y="80" width="4" height="4"></rect><rect x="1140" y="88" width="4" height="4"></rect><rect x="1140" y="96" width="4" height="4"></rect><rect x="1140" y="104" width="4" height="4"></rect><rect x="1140" y="112" width="4" height="4"></rect><rect x="1140" y="120" width="4" height="4"></rect><rect x="1148" y="80" width="4" height="4"></rect><rect x="1148" y="88" width="4" height="4"></rect><rect x="1148" y="96" width="4" height="4"></rect><rect x="1148" y="104" width="4" height="4"></rect><rect x="1148" y="112" width="4" height="4"></rect><rect x="1148" y="120" width="4" height="4"></rect></g><rect x="1148" y="72" width="8" height="64" fill="#0a2136"></rect><rect x="1144" y="72" width="4" height="64" fill="url(#dz1)"></rect><rect x="1100" y="36" width="44" height="36"></rect><g fill="#cfe4f8" fill-opacity="0.36"><rect x="1120" y="44" width="4" height="4"></rect><rect x="1128" y="44" width="4" height="4"></rect><rect x="1136" y="44" width="4" height="4"></rect><rect x="1120" y="56" width="4" height="4"></rect><rect x="1136" y="56" width="4" height="4"></rect></g><rect x="1136" y="36" width="8" height="36" fill="#0a2136"></rect><rect x="1132" y="36" width="4" height="36" fill="url(#dz1)"></rect><rect x="1164" y="108" width="88" height="28"></rect><rect x="1164" y="44" width="36" height="92"></rect><g fill="#cfe4f8" fill-opacity="0.36"><rect x="1184" y="52" width="4" height="4"></rect><rect x="1192" y="52" width="4" height="4"></rect><rect x="1176" y="64" width="4" height="4"></rect><rect x="1184" y="64" width="4" height="4"></rect><rect x="1192" y="64" width="4" height="4"></rect><rect x="1168" y="76" width="4" height="4"></rect><rect x="1184" y="76" width="4" height="4"></rect><rect x="1192" y="76" width="4" height="4"></rect><rect x="1168" y="88" width="4" height="4"></rect><rect x="1176" y="88" width="4" height="4"></rect></g><rect x="1192" y="44" width="8" height="64" fill="#0a2136"></rect><rect x="1188" y="44" width="4" height="64" fill="url(#dz1)"></rect><rect x="1164" y="40" width="4" height="4"></rect><rect x="1172" y="40" width="4" height="4"></rect><rect x="1180" y="40" width="4" height="4"></rect><rect x="1188" y="40" width="4" height="4"></rect><rect x="1216" y="64" width="36" height="72"></rect><g fill="#cfe4f8" fill-opacity="0.36"><rect x="1220" y="84" width="4" height="4"></rect><rect x="1228" y="84" width="4" height="4"></rect><rect x="1244" y="84" width="4" height="4"></rect></g><rect x="1244" y="64" width="8" height="44" fill="#0a2136"></rect><rect x="1240" y="64" width="4" height="44" fill="url(#dz1)"></rect><rect x="1256" y="36" width="80" height="100"></rect><rect x="1252" y="32" width="88" height="4"></rect><rect x="1256" y="32" width="4" height="4"></rect><rect x="1264" y="32" width="4" height="4"></rect><rect x="1272" y="32" width="4" height="4"></rect><rect x="1280" y="32" width="4" height="4"></rect><rect x="1288" y="32" width="4" height="4"></rect><rect x="1296" y="32" width="4" height="4"></rect><rect x="1304" y="32" width="4" height="4"></rect><rect x="1312" y="32" width="4" height="4"></rect><rect x="1320" y="32" width="4" height="4"></rect><rect x="1328" y="32" width="4" height="4"></rect><rect x="1276" y="24" width="12" height="8"></rect><rect x="1276" y="32" width="4" height="4"></rect><rect x="1284" y="32" width="4" height="4"></rect><g fill="#cfe4f8" fill-opacity="0.36"><rect x="1260" y="44" width="4" height="4"></rect><rect x="1268" y="44" width="4" height="4"></rect><rect x="1276" y="44" width="4" height="4"></rect><rect x="1284" y="44" width="4" height="4"></rect><rect x="1300" y="44" width="4" height="4"></rect><rect x="1308" y="44" width="4" height="4"></rect><rect x="1316" y="44" width="4" height="4"></rect><rect x="1324" y="44" width="4" height="4"></rect><rect x="1260" y="68" width="4" height="4"></rect><rect x="1276" y="68" width="4" height="4"></rect><rect x="1284" y="68" width="4" height="4"></rect><rect x="1292" y="68" width="4" height="4"></rect><rect x="1300" y="68" width="4" height="4"></rect><rect x="1316" y="68" width="4" height="4"></rect><rect x="1324" y="68" width="4" height="4"></rect><rect x="1260" y="80" width="4" height="4"></rect><rect x="1276" y="80" width="4" height="4"></rect><rect x="1284" y="80" width="4" height="4"></rect><rect x="1316" y="80" width="4" height="4"></rect><rect x="1324" y="80" width="4" height="4"></rect><rect x="1260" y="92" width="4" height="4"></rect><rect x="1268" y="92" width="4" height="4"></rect><rect x="1276" y="92" width="4" height="4"></rect><rect x="1284" y="92" width="4" height="4"></rect><rect x="1292" y="92" width="4" height="4"></rect><rect x="1300" y="92" width="4" height="4"></rect><rect x="1308" y="92" width="4" height="4"></rect><rect x="1316" y="92" width="4" height="4"></rect><rect x="1260" y="104" width="4" height="4"></rect><rect x="1276" y="104" width="4" height="4"></rect><rect x="1292" y="104" width="4" height="4"></rect><rect x="1316" y="104" width="4" height="4"></rect><rect x="1324" y="104" width="4" height="4"></rect><rect x="1260" y="116" width="4" height="4"></rect><rect x="1268" y="116" width="4" height="4"></rect><rect x="1276" y="116" width="4" height="4"></rect><rect x="1292" y="116" width="4" height="4"></rect><rect x="1300" y="116" width="4" height="4"></rect><rect x="1308" y="116" width="4" height="4"></rect><rect x="1316" y="116" width="4" height="4"></rect></g><rect x="1328" y="36" width="8" height="100" fill="#0a2136"></rect><rect x="1324" y="36" width="4" height="100" fill="url(#dz1)"></rect><rect x="1340" y="116" width="72" height="20"></rect><rect x="1340" y="80" width="32" height="56"></rect><g fill="#cfe4f8" fill-opacity="0.2"><rect x="1344" y="88" width="4" height="4"></rect><rect x="1344" y="96" width="4" height="4"></rect><rect x="1344" y="104" width="4" height="4"></rect><rect x="1352" y="88" width="4" height="4"></rect><rect x="1352" y="96" width="4" height="4"></rect><rect x="1352" y="104" width="4" height="4"></rect><rect x="1360" y="88" width="4" height="4"></rect><rect x="1360" y="96" width="4" height="4"></rect><rect x="1360" y="104" width="4" height="4"></rect></g><rect x="1364" y="80" width="8" height="36" fill="#0a2136"></rect><rect x="1360" y="80" width="4" height="36" fill="url(#dz1)"></rect><rect x="1348" y="68" width="12" height="8"></rect><rect x="1348" y="76" width="4" height="4"></rect><rect x="1356" y="76" width="4" height="4"></rect><rect x="1380" y="88" width="32" height="48"></rect><g fill="#cfe4f8" fill-opacity="0.36"><rect x="1384" y="96" width="4" height="4"></rect><rect x="1392" y="96" width="4" height="4"></rect><rect x="1400" y="96" width="4" height="4"></rect></g><rect x="1404" y="88" width="8" height="28" fill="#0a2136"></rect><rect x="1400" y="88" width="4" height="28" fill="url(#dz1)"></rect><rect x="1428" y="72" width="108" height="64"></rect><g fill="#cfe4f8" fill-opacity="0.36"><rect x="1432" y="80" width="4" height="4"></rect><rect x="1456" y="80" width="4" height="4"></rect><rect x="1472" y="80" width="4" height="4"></rect><rect x="1480" y="80" width="4" height="4"></rect><rect x="1488" y="80" width="4" height="4"></rect><rect x="1496" y="80" width="4" height="4"></rect><rect x="1504" y="80" width="4" height="4"></rect><rect x="1520" y="80" width="4" height="4"></rect><rect x="1528" y="80" width="4" height="4"></rect><rect x="1432" y="104" width="4" height="4"></rect><rect x="1456" y="104" width="4" height="4"></rect><rect x="1464" y="104" width="4" height="4"></rect><rect x="1472" y="104" width="4" height="4"></rect><rect x="1480" y="104" width="4" height="4"></rect><rect x="1496" y="104" width="4" height="4"></rect><rect x="1504" y="104" width="4" height="4"></rect><rect x="1432" y="116" width="4" height="4"></rect><rect x="1440" y="116" width="4" height="4"></rect><rect x="1448" y="116" width="4" height="4"></rect><rect x="1456" y="116" width="4" height="4"></rect><rect x="1464" y="116" width="4" height="4"></rect><rect x="1472" y="116" width="4" height="4"></rect><rect x="1488" y="116" width="4" height="4"></rect><rect x="1496" y="116" width="4" height="4"></rect><rect x="1504" y="116" width="4" height="4"></rect><rect x="1520" y="116" width="4" height="4"></rect><rect x="1528" y="116" width="4" height="4"></rect></g><rect x="1528" y="72" width="8" height="64" fill="#0a2136"></rect><rect x="1524" y="72" width="4" height="64" fill="url(#dz1)"></rect><rect x="1444" y="40" width="76" height="32"></rect><g fill="#cfe4f8" fill-opacity="0.36"><rect x="1456" y="48" width="4" height="4"></rect><rect x="1464" y="48" width="4" height="4"></rect><rect x="1480" y="48" width="4" height="4"></rect><rect x="1488" y="48" width="4" height="4"></rect><rect x="1512" y="48" width="4" height="4"></rect></g><rect x="1512" y="40" width="8" height="32" fill="#0a2136"></rect><rect x="1508" y="40" width="4" height="32" fill="url(#dz1)"></rect><rect x="1492" y="28" width="12" height="8"></rect><rect x="1492" y="36" width="4" height="4"></rect><rect x="1500" y="36" width="4" height="4"></rect><rect x="1492" y="0" width="4" height="40"></rect><rect x="1488" y="0" width="12" height="4"></rect></g></svg>