<svg xmlns="http://www.w3.org/2000/svg" width="1600" height="222" viewBox="0 0 1600 222" shape-rendering="crispEdges"><defs><pattern id="dz6" width="8" height="8" patternUnits="userSpaceOnUse"><rect width="4" height="4" fill="#b6d4f2"></rect><rect x="4" y="4" width="4" height="4" fill="#b6d4f2"></rect></pattern></defs><g fill="#c9e0f7"><rect x="8" y="82" width="40" height="140"></rect><rect x="4" y="78" width="48" height="4"></rect><rect x="24" y="50" width="4" height="32"></rect><rect x="20" y="50" width="12" height="4"></rect><rect x="40" y="82" width="8" height="140" fill="#b6d4f2"></rect><rect x="36" y="82" width="4" height="140" fill="url(#dz6)"></rect><rect x="56" y="90" width="60" height="132"></rect><rect x="108" y="90" width="8" height="132" fill="#b6d4f2"></rect><rect x="104" y="90" width="4" height="132" fill="url(#dz6)"></rect><rect x="72" y="18" width="32" height="72"></rect><rect x="96" y="18" width="8" height="72" fill="#b6d4f2"></rect><rect x="92" y="18" width="4" height="72" fill="url(#dz6)"></rect><rect x="72" y="14" width="4" height="4"></rect><rect x="80" y="14" width="4" height="4"></rect><rect x="88" y="14" width="4" height="4"></rect><rect x="96" y="14" width="4" height="4"></rect><rect x="92" y="-6" width="4" height="24"></rect><rect x="88" y="-6" width="12" height="4"></rect><rect x="120" y="110" width="44" height="112"></rect><rect x="156" y="110" width="8" height="112" fill="#b6d4f2"></rect><rect x="152" y="110" width="4" height="112" fill="url(#dz6)"></rect><rect x="132" y="50" width="24" height="60"></rect><rect x="148" y="50" width="8" height="60" fill="#b6d4f2"></rect><rect x="144" y="50" width="4" height="60" fill="url(#dz6)"></rect><rect x="168" y="86" width="56" height="136"></rect><rect x="172" y="82" width="48" height="4"></rect><rect x="176" y="78" width="40" height="4"></rect><rect x="180" y="74" width="32" height="4"></rect><rect x="184" y="70" width="24" height="4"></rect><rect x="188" y="66" width="16" height="4"></rect><rect x="192" y="62" width="8" height="4"></rect><rect x="193" y="22" width="4" height="24"></rect><rect x="216" y="86" width="8" height="136" fill="#b6d4f2"></rect><rect x="212" y="86" width="4" height="136" fill="url(#dz6)"></rect><rect x="248" y="82" width="48" height="140"></rect><rect x="244" y="78" width="56" height="4"></rect><rect x="248" y="78" width="4" height="4"></rect><rect x="256" y="78" width="4" height="4"></rect><rect x="264" y="78" width="4" height="4"></rect><rect x="272" y="78" width="4" height="4"></rect><rect x="280" y="78" width="4" height="4"></rect><rect x="288" y="78" width="4" height="4"></rect><rect x="288" y="82" width="8" height="140" fill="#b6d4f2"></rect><rect x="284" y="82" width="4" height="140" fill="url(#dz6)"></rect><rect x="300" y="114" width="56" height="108"></rect><rect x="296" y="110" width="64" height="4"></rect><rect x="300" y="110" width="4" height="4"></rect><rect x="308" y="110" width="4" height="4"></rect><rect x="316" y="110" width="4" height="4"></rect><rect x="324" y="110" width="4" height="4"></rect><rect x="332" y="110" width="4" height="4"></rect><rect x="340" y="110" width="4" height="4"></rect><rect x="348" y="110" width="4" height="4"></rect><rect x="332" y="102" width="12" height="8"></rect><rect x="332" y="110" width="4" height="4"></rect><rect x="340" y="110" width="4" height="4"></rect><rect x="336" y="90" width="4" height="24"></rect><rect x="332" y="90" width="12" height="4"></rect><rect x="348" y="114" width="8" height="108" fill="#b6d4f2"></rect><rect x="344" y="114" width="4" height="108" fill="url(#dz6)"></rect><rect x="360" y="126" width="56" height="96"></rect><rect x="408" y="126" width="8" height="96" fill="#b6d4f2"></rect><rect x="404" y="126" width="4" height="96" fill="url(#dz6)"></rect><rect x="372" y="74" width="32" height="52"></rect><rect x="396" y="74" width="8" height="52" fill="#b6d4f2"></rect><rect x="392" y="74" width="4" height="52" fill="url(#dz6)"></rect><rect x="384" y="62" width="12" height="8"></rect><rect x="384" y="70" width="4" height="4"></rect><rect x="392" y="70" width="4" height="4"></rect><rect x="420" y="110" width="36" height="112"></rect><rect x="424" y="106" width="28" height="4"></rect><rect x="428" y="102" width="20" height="4"></rect><rect x="432" y="98" width="12" height="4"></rect><rect x="436" y="94" width="4" height="4"></rect><rect x="437" y="54" width="4" height="20"></rect><rect x="448" y="110" width="8" height="112" fill="#b6d4f2"></rect><rect x="444" y="110" width="4" height="112" fill="url(#dz6)"></rect><rect x="464" y="118" width="56" height="104"></rect><rect x="460" y="114" width="64" height="4"></rect><rect x="464" y="114" width="4" height="4"></rect><rect x="472" y="114" width="4" height="4"></rect><rect x="480" y="114" width="4" height="4"></rect><rect x="488" y="114" width="4" height="4"></rect><rect x="496" y="114" width="4" height="4"></rect><rect x="504" y="114" width="4" height="4"></rect><rect x="512" y="114" width="4" height="4"></rect><rect x="512" y="118" width="8" height="104" fill="#b6d4f2"></rect><rect x="508" y="118" width="4" height="104" fill="url(#dz6)"></rect><rect x="524" y="30" width="48" height="192"></rect><rect x="520" y="26" width="56" height="4"></rect><rect x="564" y="30" width="8" height="192" fill="#b6d4f2"></rect><rect x="560" y="30" width="4" height="192" fill="url(#dz6)"></rect><rect x="580" y="142" width="48" height="80"></rect><rect x="576" y="138" width="56" height="4"></rect><rect x="588" y="134" width="28" height="8"></rect><rect x="580" y="138" width="4" height="4"></rect><rect x="588" y="138" width="4" height="4"></rect><rect x="596" y="138" width="4" height="4"></rect><rect x="604" y="138" width="4" height="4"></rect><rect x="612" y="138" width="4" height="4"></rect><rect x="620" y="138" width="4" height="4"></rect><rect x="620" y="142" width="8" height="80" fill="#b6d4f2"></rect><rect x="616" y="142" width="4" height="80" fill="url(#dz6)"></rect><rect x="632" y="130" width="52" height="92"></rect><rect x="676" y="130" width="8" height="92" fill="#b6d4f2"></rect><rect x="672" y="130" width="4" height="92" fill="url(#dz6)"></rect><rect x="644" y="82" width="32" height="48"></rect><rect x="668" y="82" width="8" height="48" fill="#b6d4f2"></rect><rect x="664" y="82" width="4" height="48" fill="url(#dz6)"></rect><rect x="644" y="78" width="4" height="4"></rect><rect x="652" y="78" width="4" height="4"></rect><rect x="660" y="78" width="4" height="4"></rect><rect x="668" y="78" width="4" height="4"></rect><rect x="664" y="50" width="4" height="32"></rect><rect x="660" y="50" width="12" height="4"></rect><rect x="692" y="130" width="36" height="92"></rect><rect x="720" y="130" width="8" height="92" fill="#b6d4f2"></rect><rect x="716" y="130" width="4" height="92" fill="url(#dz6)"></rect><rect x="700" y="78" width="24" height="52"></rect><rect x="716" y="78" width="8" height="52" fill="#b6d4f2"></rect><rect x="712" y="78" width="4" height="52" fill="url(#dz6)"></rect><rect x="712" y="54" width="4" height="24"></rect><rect x="708" y="54" width="12" height="4"></rect><rect x="736" y="162" width="32" height="60"></rect><rect x="760" y="162" width="8" height="60" fill="#b6d4f2"></rect><rect x="756" y="162" width="4" height="60" fill="url(#dz6)"></rect><rect x="744" y="130" width="20" height="32"></rect><rect x="752" y="110" width="4" height="20"></rect><rect x="748" y="110" width="12" height="4"></rect><rect x="800" y="94" width="36" height="128"></rect><rect x="796" y="90" width="44" height="4"></rect><rect x="828" y="94" width="8" height="128" fill="#b6d4f2"></rect><rect x="824" y="94" width="4" height="128" fill="url(#dz6)"></rect><rect x="840" y="86" width="60" height="136"></rect><rect x="844" y="82" width="52" height="4"></rect><rect x="848" y="78" width="44" height="4"></rect><rect x="852" y="74" width="36" height="4"></rect><rect x="856" y="70" width="28" height="4"></rect><rect x="860" y="66" width="20" height="4"></rect><rect x="864" y="62" width="12" height="4"></rect><rect x="868" y="58" width="4" height="4"></rect><rect x="869" y="22" width="4" height="20"></rect><rect x="892" y="86" width="8" height="136" fill="#b6d4f2"></rect><rect x="888" y="86" width="4" height="136" fill="url(#dz6)"></rect><rect x="912" y="90" width="44" height="132"></rect><rect x="908" y="86" width="52" height="4"></rect><rect x="920" y="82" width="20" height="8"></rect><rect x="948" y="90" width="8" height="132" fill="#b6d4f2"></rect><rect x="944" y="90" width="4" height="132" fill="url(#dz6)"></rect><rect x="960" y="138" width="36" height="84"></rect><rect x="956" y="134" width="44" height="4"></rect><rect x="988" y="138" width="8" height="84" fill="#b6d4f2"></rect><rect x="984" y="138" width="4" height="84" fill="url(#dz6)"></rect><rect x="1000" y="130" width="52" height="92"></rect><rect x="1044" y="130" width="8" height="92" fill="#b6d4f2"></rect><rect x="1040" y="130" width="4" height="92" fill="url(#dz6)"></rect><rect x="1012" y="82" width="32" height="48"></rect><rect x="1036" y="82" width="8" height="48" fill="#b6d4f2"></rect><rect x="1032" y="82" width="4" height="48" fill="url(#dz6)"></rect><rect x="1012" y="78" width="4" height="4"></rect><rect x="1020" y="78" width="4" height="4"></rect><rect x="1028" y="78" width="4" height="4"></rect><rect x="1036" y="78" width="4" height="4"></rect><rect x="1060" y="114" width="48" height="108"></rect><rect x="1100" y="114" width="8" height="108" fill="#b6d4f2"></rect><rect x="1096" y="114" width="4" height="108" fill="url(#dz6)"></rect><rect x="1072" y="58" width="28" height="56"></rect><rect x="1092" y="58" width="8" height="56" fill="#b6d4f2"></rect><rect x="1088" y="58" width="4" height="56" fill="url(#dz6)"></rect><rect x="1112" y="110" width="52" height="112"></rect><rect x="1108" y="106" width="60" height="4"></rect><rect x="1128" y="82" width="4" height="28"></rect><rect x="1124" y="82" width="12" height="4"></rect><rect x="1156" y="110" width="8" height="112" fill="#b6d4f2"></rect><rect x="1152" y="110" width="4" height="112" fill="url(#dz6)"></rect><rect x="1168" y="98" width="32" height="124"></rect><rect x="1192" y="98" width="8" height="124" fill="#b6d4f2"></rect><rect x="1188" y="98" width="4" height="124" fill="url(#dz6)"></rect><rect x="1172" y="30" width="24" height="68"></rect><rect x="1188" y="30" width="8" height="68" fill="#b6d4f2"></rect><rect x="1184" y="30" width="4" height="68" fill="url(#dz6)"></rect><rect x="1208" y="150" width="64" height="72"></rect><rect x="1204" y="146" width="72" height="4"></rect><rect x="1264" y="150" width="8" height="72" fill="#b6d4f2"></rect><rect x="1260" y="150" width="4" height="72" fill="url(#dz6)"></rect><rect x="1276" y="106" width="40" height="116"></rect><rect x="1272" y="102" width="48" height="4"></rect><rect x="1276" y="102" width="4" height="4"></rect><rect x="1284" y="102" width="4" height="4"></rect><rect x="1292" y="102" width="4" height="4"></rect><rect x="1300" y="102" width="4" height="4"></rect><rect x="1308" y="102" width="4" height="4"></rect><rect x="1308" y="106" width="8" height="116" fill="#b6d4f2"></rect><rect x="1304" y="106" width="4" height="116" fill="url(#dz6)"></rect><rect x="1344" y="82" width="56" height="140"></rect><rect x="1340" y="78" width="64" height="4"></rect><rect x="1344" y="78" width="4" height="4"></rect><rect x="1352" y="78" width="4" height="4"></rect><rect x="1360" y="78" width="4" height="4"></rect><rect x="1368" y="78" width="4" height="4"></rect><rect x="1376" y="78" width="4" height="4"></rect><rect x="1384" y="78" width="4" height="4"></rect><rect x="1392" y="78" width="4" height="4"></rect><rect x="1380" y="58" width="4" height="24"></rect><rect x="1376" y="58" width="12" height="4"></rect><rect x="1392" y="82" width="8" height="140" fill="#b6d4f2"></rect><rect x="1388" y="82" width="4" height="140" fill="url(#dz6)"></rect><rect x="1408" y="146" width="48" height="76"></rect><rect x="1404" y="142" width="56" height="4"></rect><rect x="1420" y="138" width="20" height="8"></rect><rect x="1424" y="110" width="4" height="36"></rect><rect x="1420" y="110" width="12" height="4"></rect><rect x="1448" y="146" width="8" height="76" fill="#b6d4f2"></rect><rect x="1444" y="146" width="4" height="76" fill="url(#dz6)"></rect><rect x="1464" y="150" width="48" height="72"></rect><rect x="1460" y="146" width="56" height="4"></rect><rect x="1484" y="114" width="4" height="36"></rect><rect x="1480" y="114" width="12" height="4"></rect><rect x="1504" y="150" width="8" height="72" fill="#b6d4f2"></rect><rect x="1500" y="150" width="4" height="72" fill="url(#dz6)"></rect><rect x="1516" y="62" width="36" height="160"></rect><rect x="1512" y="58" width="44" height="4"></rect><rect x="1516" y="58" width="4" height="4"></rect><rect x="1524" y="58" width="4" height="4"></rect><rect x="1532" y="58" width="4" height="4"></rect><rect x="1540" y="58" width="4" height="4"></rect><rect x="1540" y="26" width="4" height="36"></rect><rect x="1536" y="26" width="12" height="4"></rect><rect x="1544" y="62" width="8" height="160" fill="#b6d4f2"></rect><rect x="1540" y="62" width="4" height="160" fill="url(#dz6)"></rect><rect x="1556" y="146" width="64" height="76"></rect><rect x="1552" y="142" width="72" height="4"></rect><rect x="1584" y="138" width="24" height="8"></rect><rect x="1556" y="142" width="4" height="4"></rect><rect x="1564" y="142" width="4" height="4"></rect><rect x="1572" y="142" width="4" height="4"></rect><rect x="1580" y="142" width="4" height="4"></rect><rect x="1588" y="142" width="4" height="4"></rect><rect x="1596" y="142" width="4" height="4"></rect><rect x="1604" y="142" width="4" height="4"></rect><rect x="1612" y="142" width="4" height="4"></rect><rect x="1572" y="134" width="12" height="8"></rect><rect x="1572" y="142" width="4" height="4"></rect><rect x="1580" y="142" width="4" height="4"></rect><rect x="1576" y="114" width="4" height="32"></rect><rect x="1572" y="114" width="12" height="4"></rect><rect x="1612" y="146" width="8" height="76" fill="#b6d4f2"></rect><rect x="1608" y="146" width="4" height="76" fill="url(#dz6)"></rect></g></svg>