<svg xmlns="http://www.w3.org/2000/svg" width="1600" height="158" viewBox="0 0 1600 158" shape-rendering="crispEdges"><defs><pattern id="dz3" width="8" height="8" patternUnits="userSpaceOnUse"><rect width="4" height="4" fill="#1a589a"></rect><rect x="4" y="4" width="4" height="4" fill="#1a589a"></rect></pattern></defs><g fill="#1f66b0"><rect x="8" y="70" width="84" height="88"></rect><g fill="#e9f2fc" fill-opacity="0.22"><rect x="12" y="78" width="4" height="4"></rect><rect x="20" y="78" width="4" height="4"></rect><rect x="28" y="78" width="4" height="4"></rect><rect x="36" y="78" width="4" height="4"></rect><rect x="44" y="78" width="4" height="4"></rect><rect x="60" y="78" width="4" height="4"></rect><rect x="68" y="78" width="4" height="4"></rect><rect x="76" y="78" width="4" height="4"></rect><rect x="12" y="90" width="4" height="4"></rect><rect x="28" y="90" width="4" height="4"></rect><rect x="36" y="90" width="4" height="4"></rect><rect x="44" y="90" width="4" height="4"></rect><rect x="52" y="90" width="4" height="4"></rect><rect x="60" y="90" width="4" height="4"></rect><rect x="68" y="90" width="4" height="4"></rect><rect x="76" y="90" width="4" height="4"></rect><rect x="12" y="102" width="4" height="4"></rect><rect x="20" y="102" width="4" height="4"></rect><rect x="60" y="102" width="4" height="4"></rect><rect x="68" y="102" width="4" height="4"></rect><rect x="76" y="102" width="4" height="4"></rect><rect x="12" y="114" width="4" height="4"></rect><rect x="20" y="114" width="4" height="4"></rect><rect x="28" y="114" width="4" height="4"></rect><rect x="44" y="114" width="4" height="4"></rect><rect x="52" y="114" width="4" height="4"></rect><rect x="60" y="114" width="4" height="4"></rect><rect x="12" y="126" width="4" height="4"></rect><rect x="20" y="126" width="4" height="4"></rect><rect x="36" y="126" width="4" height="4"></rect><rect x="44" y="126" width="4" height="4"></rect><rect x="52" y="126" width="4" height="4"></rect><rect x="76" y="126" width="4" height="4"></rect></g><rect x="84" y="70" width="8" height="88" fill="#1a589a"></rect><rect x="80" y="70" width="4" height="88" fill="url(#dz3)"></rect><rect x="20" y="22" width="60" height="48"></rect><g fill="#e9f2fc" fill-opacity="0.154"><rect x="24" y="30" width="4" height="4"></rect><rect x="24" y="38" width="4" height="4"></rect><rect x="24" y="46" width="4" height="4"></rect><rect x="24" y="54" width="4" height="4"></rect><rect x="32" y="30" width="4" height="4"></rect><rect x="32" y="38" width="4" height="4"></rect><rect x="32" y="46" width="4" height="4"></rect><rect x="32" y="54" width="4" height="4"></rect><rect x="40" y="30" width="4" height="4"></rect><rect x="40" y="38" width="4" height="4"></rect><rect x="40" y="46" width="4" height="4"></rect><rect x="40" y="54" width="4" height="4"></rect><rect x="48" y="30" width="4" height="4"></rect><rect x="48" y="38" width="4" height="4"></rect><rect x="48" y="46" width="4" height="4"></rect><rect x="48" y="54" width="4" height="4"></rect><rect x="56" y="30" width="4" height="4"></rect><rect x="56" y="38" width="4" height="4"></rect><rect x="56" y="46" width="4" height="4"></rect><rect x="56" y="54" width="4" height="4"></rect><rect x="64" y="30" width="4" height="4"></rect><rect x="64" y="38" width="4" height="4"></rect><rect x="64" y="46" width="4" height="4"></rect><rect x="64" y="54" width="4" height="4"></rect><rect x="72" y="30" width="4" height="4"></rect><rect x="72" y="38" width="4" height="4"></rect><rect x="72" y="46" width="4" height="4"></rect><rect x="72" y="54" width="4" height="4"></rect></g><rect x="72" y="22" width="8" height="48" fill="#1a589a"></rect><rect x="68" y="22" width="4" height="48" fill="url(#dz3)"></rect><rect x="20" y="18" width="4" height="4"></rect><rect x="28" y="18" width="4" height="4"></rect><rect x="36" y="18" width="4" height="4"></rect><rect x="44" y="18" width="4" height="4"></rect><rect x="52" y="18" width="4" height="4"></rect><rect x="60" y="18" width="4" height="4"></rect><rect x="68" y="18" width="4" height="4"></rect><rect x="52" y="-14" width="4" height="36"></rect><rect x="48" y="-14" width="12" height="4"></rect><rect x="100" y="98" width="92" height="60"></rect><g fill="#e9f2fc" fill-opacity="0.154"><rect x="104" y="106" width="4" height="4"></rect><rect x="104" y="114" width="4" height="4"></rect><rect x="104" y="122" width="4" height="4"></rect><rect x="104" y="130" width="4" height="4"></rect><rect x="104" y="138" width="4" height="4"></rect><rect x="104" y="146" width="4" height="4"></rect><rect x="112" y="106" width="4" height="4"></rect><rect x="112" y="114" width="4" height="4"></rect><rect x="112" y="122" width="4" height="4"></rect><rect x="112" y="130" width="4" height="4"></rect><rect x="112" y="138" width="4" height="4"></rect><rect x="112" y="146" width="4" height="4"></rect><rect x="120" y="106" width="4" height="4"></rect><rect x="120" y="114" width="4" height="4"></rect><rect x="120" y="122" width="4" height="4"></rect><rect x="120" y="130" width="4" height="4"></rect><rect x="120" y="138" width="4" height="4"></rect><rect x="120" y="146" width="4" height="4"></rect><rect x="128" y="106" width="4" height="4"></rect><rect x="128" y="114" width="4" height="4"></rect><rect x="128" y="122" width="4" height="4"></rect><rect x="128" y="130" width="4" height="4"></rect><rect x="128" y="138" width="4" height="4"></rect><rect x="128" y="146" width="4" height="4"></rect><rect x="136" y="106" width="4" height="4"></rect><rect x="136" y="114" width="4" height="4"></rect><rect x="136" y="122" width="4" height="4"></rect><rect x="136" y="130" width="4" height="4"></rect><rect x="136" y="138" width="4" height="4"></rect><rect x="136" y="146" width="4" height="4"></rect><rect x="144" y="106" width="4" height="4"></rect><rect x="144" y="114" width="4" height="4"></rect><rect x="144" y="122" width="4" height="4"></rect><rect x="144" y="130" width="4" height="4"></rect><rect x="144" y="138" width="4" height="4"></rect><rect x="144" y="146" width="4" height="4"></rect><rect x="152" y="106" width="4" height="4"></rect><rect x="152" y="114" width="4" height="4"></rect><rect x="152" y="122" width="4" height="4"></rect><rect x="152" y="130" width="4" height="4"></rect><rect x="152" y="138" width="4" height="4"></rect><rect x="152" y="146" width="4" height="4"></rect><rect x="160" y="106" width="4" height="4"></rect><rect x="160" y="114" width="4" height="4"></rect><rect x="160" y="122" width="4" height="4"></rect><rect x="160" y="130" width="4" height="4"></rect><rect x="160" y="138" width="4" height="4"></rect><rect x="160" y="146" width="4" height="4"></rect><rect x="168" y="106" width="4" height="4"></rect><rect x="168" y="114" width="4" height="4"></rect><rect x="168" y="122" width="4" height="4"></rect><rect x="168" y="130" width="4" height="4"></rect><rect x="168" y="138" width="4" height="4"></rect><rect x="168" y="146" width="4" height="4"></rect><rect x="176" y="106" width="4" height="4"></rect><rect x="176" y="114" width="4" height="4"></rect><rect x="176" y="122" width="4" height="4"></rect><rect x="176" y="130" width="4" height="4"></rect><rect x="176" y="138" width="4" height="4"></rect><rect x="176" y="146" width="4" height="4"></rect><rect x="184" y="106" width="4" height="4"></rect><rect x="184" y="114" width="4" height="4"></rect><rect x="184" y="122" width="4" height="4"></rect><rect x="184" y="130" width="4" height="4"></rect><rect x="184" y="138" width="4" height="4"></rect><rect x="184" y="146" width="4" height="4"></rect></g><rect x="184" y="98" width="8" height="60" fill="#1a589a"></rect><rect x="180" y="98" width="4" height="60" fill="url(#dz3)"></rect><rect x="116" y="66" width="60" height="32"></rect><g fill="#e9f2fc" fill-opacity="0.22"><rect x="120" y="74" width="4" height="4"></rect><rect x="128" y="74" width="4" height="4"></rect><rect x="136" y="74" width="4" height="4"></rect><rect x="144" y="74" width="4" height="4"></rect><rect x="152" y="74" width="4" height="4"></rect><rect x="160" y="74" width="4" height="4"></rect><rect x="168" y="74" width="4" height="4"></rect></g><rect x="168" y="66" width="8" height="32" fill="#1a589a"></rect><rect x="164" y="66" width="4" height="32" fill="url(#dz3)"></rect><rect x="200" y="74" width="44" height="84"></rect><g fill="#e9f2fc" fill-opacity="0.22"><rect x="204" y="82" width="4" height="4"></rect><rect x="220" y="82" width="4" height="4"></rect><rect x="228" y="82" width="4" height="4"></rect><rect x="236" y="82" width="4" height="4"></rect><rect x="204" y="94" width="4" height="4"></rect><rect x="220" y="94" width="4" height="4"></rect><rect x="228" y="94" width="4" height="4"></rect><rect x="236" y="94" width="4" height="4"></rect><rect x="204" y="106" width="4" height="4"></rect><rect x="212" y="106" width="4" height="4"></rect><rect x="228" y="106" width="4" height="4"></rect><rect x="236" y="106" width="4" height="4"></rect><rect x="204" y="118" width="4" height="4"></rect><rect x="220" y="118" width="4" height="4"></rect><rect x="236" y="118" width="4" height="4"></rect><rect x="212" y="130" width="4" height="4"></rect><rect x="220" y="130" width="4" height="4"></rect><rect x="204" y="142" width="4" height="4"></rect><rect x="212" y="142" width="4" height="4"></rect><rect x="220" y="142" width="4" height="4"></rect></g><rect x="236" y="74" width="8" height="84" fill="#1a589a"></rect><rect x="232" y="74" width="4" height="84" fill="url(#dz3)"></rect><rect x="212" y="30" width="24" height="44"></rect><g fill="#e9f2fc" fill-opacity="0.154"><rect x="216" y="38" width="4" height="4"></rect><rect x="216" y="46" width="4" height="4"></rect><rect x="216" y="54" width="4" height="4"></rect><rect x="216" y="62" width="4" height="4"></rect><rect x="224" y="38" width="4" height="4"></rect><rect x="224" y="46" width="4" height="4"></rect><rect x="224" y="54" width="4" height="4"></rect><rect x="224" y="62" width="4" height="4"></rect></g><rect x="228" y="30" width="8" height="44" fill="#1a589a"></rect><rect x="224" y="30" width="4" height="44" fill="url(#dz3)"></rect><rect x="248" y="134" width="80" height="24"></rect><rect x="248" y="34" width="32" height="124"></rect><g fill="#e9f2fc" fill-opacity="0.22"><rect x="252" y="42" width="4" height="4"></rect><rect x="260" y="42" width="4" height="4"></rect><rect x="252" y="54" width="4" height="4"></rect><rect x="260" y="54" width="4" height="4"></rect><rect x="260" y="66" width="4" height="4"></rect><rect x="252" y="78" width="4" height="4"></rect><rect x="260" y="78" width="4" height="4"></rect><rect x="268" y="78" width="4" height="4"></rect><rect x="252" y="90" width="4" height="4"></rect><rect x="268" y="90" width="4" height="4"></rect><rect x="260" y="102" width="4" height="4"></rect><rect x="268" y="102" width="4" height="4"></rect></g><rect x="272" y="34" width="8" height="100" fill="#1a589a"></rect><rect x="268" y="34" width="4" height="100" fill="url(#dz3)"></rect><rect x="296" y="54" width="32" height="104"></rect><g fill="#e9f2fc" fill-opacity="0.22"><rect x="300" y="74" width="4" height="4"></rect><rect x="300" y="86" width="4" height="4"></rect><rect x="300" y="98" width="4" height="4"></rect><rect x="316" y="98" width="4" height="4"></rect><rect x="308" y="110" width="4" height="4"></rect><rect x="316" y="110" width="4" height="4"></rect></g><rect x="320" y="54" width="8" height="80" fill="#1a589a"></rect><rect x="316" y="54" width="4" height="80" fill="url(#dz3)"></rect><rect x="336" y="74" width="72" height="84"></rect><g fill="#e9f2fc" fill-opacity="0.22"><rect x="356" y="82" width="4" height="4"></rect><rect x="364" y="82" width="4" height="4"></rect><rect x="372" y="82" width="4" height="4"></rect><rect x="396" y="82" width="4" height="4"></rect><rect x="356" y="94" width="4" height="4"></rect><rect x="364" y="94" width="4" height="4"></rect><rect x="396" y="94" width="4" height="4"></rect><rect x="340" y="106" width="4" height="4"></rect><rect x="348" y="106" width="4" height="4"></rect><rect x="364" y="106" width="4" height="4"></rect><rect x="372" y="106" width="4" height="4"></rect><rect x="388" y="106" width="4" height="4"></rect><rect x="340" y="118" width="4" height="4"></rect><rect x="364" y="118" width="4" height="4"></rect><rect x="372" y="118" width="4" height="4"></rect><rect x="388" y="118" width="4" height="4"></rect><rect x="396" y="118" width="4" height="4"></rect><rect x="340" y="130" width="4" height="4"></rect><rect x="348" y="130" width="4" height="4"></rect><rect x="356" y="130" width="4" height="4"></rect><rect x="364" y="130" width="4" height="4"></rect><rect x="372" y="130" width="4" height="4"></rect><rect x="380" y="130" width="4" height="4"></rect><rect x="388" y="130" width="4" height="4"></rect><rect x="396" y="130" width="4" height="4"></rect></g><rect x="400" y="74" width="8" height="84" fill="#1a589a"></rect><rect x="396" y="74" width="4" height="84" fill="url(#dz3)"></rect><rect x="348" y="30" width="52" height="44"></rect><g fill="#e9f2fc" fill-opacity="0.22"><rect x="352" y="50" width="4" height="4"></rect><rect x="360" y="50" width="4" height="4"></rect><rect x="376" y="50" width="4" height="4"></rect><rect x="384" y="50" width="4" height="4"></rect><rect x="392" y="50" width="4" height="4"></rect></g><rect x="392" y="30" width="8" height="44" fill="#1a589a"></rect><rect x="388" y="30" width="4" height="44" fill="url(#dz3)"></rect><rect x="380" y="10" width="4" height="20"></rect><rect x="376" y="10" width="12" height="4"></rect><rect x="420" y="82" width="52" height="76"></rect><g fill="#e9f2fc" fill-opacity="0.22"><rect x="432" y="90" width="4" height="4"></rect><rect x="448" y="90" width="4" height="4"></rect><rect x="456" y="90" width="4" height="4"></rect><rect x="464" y="90" width="4" height="4"></rect><rect x="432" y="102" width="4" height="4"></rect><rect x="464" y="102" width="4" height="4"></rect><rect x="424" y="114" width="4" height="4"></rect><rect x="456" y="114" width="4" height="4"></rect><rect x="424" y="126" width="4" height="4"></rect><rect x="440" y="126" width="4" height="4"></rect><rect x="448" y="126" width="4" height="4"></rect><rect x="464" y="126" width="4" height="4"></rect><rect x="432" y="138" width="4" height="4"></rect><rect x="464" y="138" width="4" height="4"></rect></g><rect x="464" y="82" width="8" height="76" fill="#1a589a"></rect><rect x="460" y="82" width="4" height="76" fill="url(#dz3)"></rect><rect x="428" y="42" width="40" height="40"></rect><g fill="#e9f2fc" fill-opacity="0.22"><rect x="432" y="50" width="4" height="4"></rect><rect x="440" y="50" width="4" height="4"></rect><rect x="448" y="50" width="4" height="4"></rect><rect x="432" y="62" width="4" height="4"></rect><rect x="448" y="62" width="4" height="4"></rect></g><rect x="460" y="42" width="8" height="40" fill="#1a589a"></rect><rect x="456" y="42" width="4" height="40" fill="url(#dz3)"></rect><rect x="428" y="38" width="4" height="4"></rect><rect x="436" y="38" width="4" height="4"></rect><rect x="444" y="38" width="4" height="4"></rect><rect x="452" y="38" width="4" height="4"></rect><rect x="460" y="38" width="4" height="4"></rect><rect x="480" y="26" width="72" height="132"></rect><rect x="476" y="22" width="80" height="4"></rect><rect x="496" y="18" width="20" height="8"></rect><g fill="#e9f2fc" fill-opacity="0.154"><rect x="484" y="34" width="4" height="4"></rect><rect x="484" y="42" width="4" height="4"></rect><rect x="484" y="50" width="4" height="4"></rect><rect x="484" y="58" width="4" height="4"></rect><rect x="484" y="66" width="4" height="4"></rect><rect x="484" y="74" width="4" height="4"></rect><rect x="484" y="82" width="4" height="4"></rect><rect x="484" y="90" width="4" height="4"></rect><rect x="484" y="98" width="4" height="4"></rect><rect x="484" y="106" width="4" height="4"></rect><rect x="484" y="114" width="4" height="4"></rect><rect x="484" y="122" width="4" height="4"></rect><rect x="484" y="130" width="4" height="4"></rect><rect x="484" y="138" width="4" height="4"></rect><rect x="484" y="146" width="4" height="4"></rect><rect x="492" y="34" width="4" height="4"></rect><rect x="492" y="42" width="4" height="4"></rect><rect x="492" y="50" width="4" height="4"></rect><rect x="492" y="58" width="4" height="4"></rect><rect x="492" y="66" width="4" height="4"></rect><rect x="492" y="74" width="4" height="4"></rect><rect x="492" y="82" width="4" height="4"></rect><rect x="492" y="90" width="4" height="4"></rect><rect x="492" y="98" width="4" height="4"></rect><rect x="492" y="106" width="4" height="4"></rect><rect x="492" y="114" width="4" height="4"></rect><rect x="492" y="122" width="4" height="4"></rect><rect x="492" y="130" width="4" height="4"></rect><rect x="492" y="138" width="4" height="4"></rect><rect x="492" y="146" width="4" height="4"></rect><rect x="500" y="34" width="4" height="4"></rect><rect x="500" y="42" width="4" height="4"></rect><rect x="500" y="50" width="4" height="4"></rect><rect x="500" y="58" width="4" height="4"></rect><rect x="500" y="66" width="4" height="4"></rect><rect x="500" y="74" width="4" height="4"></rect><rect x="500" y="82" width="4" height="4"></rect><rect x="500" y="90" width="4" height="4"></rect><rect x="500" y="98" width="4" height="4"></rect><rect x="500" y="106" width="4" height="4"></rect><rect x="500" y="114" width="4" height="4"></rect><rect x="500" y="122" width="4" height="4"></rect><rect x="500" y="130" width="4" height="4"></rect><rect x="500" y="138" width="4" height="4"></rect><rect x="500" y="146" width="4" height="4"></rect><rect x="508" y="34" width="4" height="4"></rect><rect x="508" y="42" width="4" height="4"></rect><rect x="508" y="50" width="4" height="4"></rect><rect x="508" y="58" width="4" height="4"></rect><rect x="508" y="66" width="4" height="4"></rect><rect x="508" y="74" width="4" height="4"></rect><rect x="508" y="82" width="4" height="4"></rect><rect x="508" y="90" width="4" height="4"></rect><rect x="508" y="98" width="4" height="4"></rect><rect x="508" y="106" width="4" height="4"></rect><rect x="508" y="114" width="4" height="4"></rect><rect x="508" y="122" width="4" height="4"></rect><rect x="508" y="130" width="4" height="4"></rect><rect x="508" y="138" width="4" height="4"></rect><rect x="508" y="146" width="4" height="4"></rect><rect x="516" y="34" width="4" height="4"></rect><rect x="516" y="42" width="4" height="4"></rect><rect x="516" y="50" width="4" height="4"></rect><rect x="516" y="58" width="4" height="4"></rect><rect x="516" y="66" width="4" height="4"></rect><rect x="516" y="74" width="4" height="4"></rect><rect x="516" y="82" width="4" height="4"></rect><rect x="516" y="90" width="4" height="4"></rect><rect x="516" y="98" width="4" height="4"></rect><rect x="516" y="106" width="4" height="4"></rect><rect x="516" y="114" width="4" height="4"></rect><rect x="516" y="122" width="4" height="4"></rect><rect x="516" y="130" width="4" height="4"></rect><rect x="516" y="138" width="4" height="4"></rect><rect x="516" y="146" width="4" height="4"></rect><rect x="524" y="34" width="4" height="4"></rect><rect x="524" y="42" width="4" height="4"></rect><rect x="524" y="50" width="4" height="4"></rect><rect x="524" y="58" width="4" height="4"></rect><rect x="524" y="66" width="4" height="4"></rect><rect x="524" y="74" width="4" height="4"></rect><rect x="524" y="82" width="4" height="4"></rect><rect x="524" y="90" width="4" height="4"></rect><rect x="524" y="98" width="4" height="4"></rect><rect x="524" y="106" width="4" height="4"></rect><rect x="524" y="114" width="4" height="4"></rect><rect x="524" y="122" width="4" height="4"></rect><rect x="524" y="130" width="4" height="4"></rect><rect x="524" y="138" width="4" height="4"></rect><rect x="524" y="146" width="4" height="4"></rect><rect x="532" y="34" width="4" height="4"></rect><rect x="532" y="42" width="4" height="4"></rect><rect x="532" y="50" width="4" height="4"></rect><rect x="532" y="58" width="4" height="4"></rect><rect x="532" y="66" width="4" height="4"></rect><rect x="532" y="74" width="4" height="4"></rect><rect x="532" y="82" width="4" height="4"></rect><rect x="532" y="90" width="4" height="4"></rect><rect x="532" y="98" width="4" height="4"></rect><rect x="532" y="106" width="4" height="4"></rect><rect x="532" y="114" width="4" height="4"></rect><rect x="532" y="122" width="4" height="4"></rect><rect x="532" y="130" width="4" height="4"></rect><rect x="532" y="138" width="4" height="4"></rect><rect x="532" y="146" width="4" height="4"></rect><rect x="540" y="34" width="4" height="4"></rect><rect x="540" y="42" width="4" height="4"></rect><rect x="540" y="50" width="4" height="4"></rect><rect x="540" y="58" width="4" height="4"></rect><rect x="540" y="66" width="4" height="4"></rect><rect x="540" y="74" width="4" height="4"></rect><rect x="540" y="82" width="4" height="4"></rect><rect x="540" y="90" width="4" height="4"></rect><rect x="540" y="98" width="4" height="4"></rect><rect x="540" y="106" width="4" height="4"></rect><rect x="540" y="114" width="4" height="4"></rect><rect x="540" y="122" width="4" height="4"></rect><rect x="540" y="130" width="4" height="4"></rect><rect x="540" y="138" width="4" height="4"></rect><rect x="540" y="146" width="4" height="4"></rect></g><rect x="544" y="26" width="8" height="132" fill="#1a589a"></rect><rect x="540" y="26" width="4" height="132" fill="url(#dz3)"></rect><rect x="564" y="130" width="72" height="28"></rect><rect x="564" y="94" width="32" height="64"></rect><g fill="#e9f2fc" fill-opacity="0.22"><rect x="568" y="102" width="4" height="4"></rect><rect x="576" y="102" width="4" height="4"></rect><rect x="584" y="102" width="4" height="4"></rect><rect x="568" y="114" width="4" height="4"></rect><rect x="584" y="114" width="4" height="4"></rect></g><rect x="588" y="94" width="8" height="36" fill="#1a589a"></rect><rect x="584" y="94" width="4" height="36" fill="url(#dz3)"></rect><rect x="580" y="82" width="12" height="8"></rect><rect x="580" y="90" width="4" height="4"></rect><rect x="588" y="90" width="4" height="4"></rect><rect x="604" y="106" width="32" height="52"></rect><g fill="#e9f2fc" fill-opacity="0.22"><rect x="608" y="114" width="4" height="4"></rect><rect x="616" y="114" width="4" height="4"></rect></g><rect x="628" y="106" width="8" height="24" fill="#1a589a"></rect><rect x="624" y="106" width="4" height="24" fill="url(#dz3)"></rect><rect x="644" y="90" width="92" height="68"></rect><rect x="640" y="86" width="100" height="4"></rect><rect x="708" y="82" width="20" height="8"></rect><rect x="644" y="86" width="4" height="4"></rect><rect x="652" y="86" width="4" height="4"></rect><rect x="660" y="86" width="4" height="4"></rect><rect x="668" y="86" width="4" height="4"></rect><rect x="676" y="86" width="4" height="4"></rect><rect x="684" y="86" width="4" height="4"></rect><rect x="692" y="86" width="4" height="4"></rect><rect x="700" y="86" width="4" height="4"></rect><rect x="708" y="86" width="4" height="4"></rect><rect x="716" y="86" width="4" height="4"></rect><rect x="724" y="86" width="4" height="4"></rect><g fill="#e9f2fc" fill-opacity="0.22"><rect x="648" y="98" width="4" height="4"></rect><rect x="664" y="98" width="4" height="4"></rect><rect x="672" y="98" width="4" height="4"></rect><rect x="696" y="98" width="4" height="4"></rect><rect x="704" y="98" width="4" height="4"></rect><rect x="712" y="98" width="4" height="4"></rect><rect x="720" y="98" width="4" height="4"></rect><rect x="728" y="98" width="4" height="4"></rect><rect x="648" y="122" width="4" height="4"></rect><rect x="656" y="122" width="4" height="4"></rect><rect x="672" y="122" width="4" height="4"></rect><rect x="680" y="122" width="4" height="4"></rect><rect x="688" y="122" width="4" height="4"></rect><rect x="696" y="122" width="4" height="4"></rect><rect x="712" y="122" width="4" height="4"></rect><rect x="720" y="122" width="4" height="4"></rect><rect x="728" y="122" width="4" height="4"></rect><rect x="648" y="134" width="4" height="4"></rect><rect x="656" y="134" width="4" height="4"></rect><rect x="672" y="134" width="4" height="4"></rect><rect x="680" y="134" width="4" height="4"></rect><rect x="688" y="134" width="4" height="4"></rect><rect x="696" y="134" width="4" height="4"></rect><rect x="704" y="134" width="4" height="4"></rect><rect x="712" y="134" width="4" height="4"></rect><rect x="720" y="134" width="4" height="4"></rect><rect x="728" y="134" width="4" height="4"></rect></g><rect x="728" y="90" width="8" height="68" fill="#1a589a"></rect><rect x="724" y="90" width="4" height="68" fill="url(#dz3)"></rect><rect x="764" y="82" width="44" height="76"></rect><g fill="#e9f2fc" fill-opacity="0.22"><rect x="792" y="102" width="4" height="4"></rect><rect x="768" y="126" width="4" height="4"></rect><rect x="784" y="126" width="4" height="4"></rect><rect x="792" y="126" width="4" height="4"></rect><rect x="800" y="126" width="4" height="4"></rect><rect x="776" y="138" width="4" height="4"></rect><rect x="784" y="138" width="4" height="4"></rect><rect x="792" y="138" width="4" height="4"></rect></g><rect x="800" y="82" width="8" height="76" fill="#1a589a"></rect><rect x="796" y="82" width="4" height="76" fill="url(#dz3)"></rect><rect x="776" y="42" width="24" height="40"></rect><g fill="#e9f2fc" fill-opacity="0.22"><rect x="780" y="50" width="4" height="4"></rect><rect x="788" y="62" width="4" height="4"></rect></g><rect x="792" y="42" width="8" height="40" fill="#1a589a"></rect><rect x="788" y="42" width="4" height="40" fill="url(#dz3)"></rect><rect x="788" y="6" width="4" height="36"></rect><rect x="784" y="6" width="12" height="4"></rect><rect x="812" y="42" width="64" height="116"></rect><rect x="808" y="38" width="72" height="4"></rect><rect x="832" y="34" width="20" height="8"></rect><g fill="#e9f2fc" fill-opacity="0.154"><rect x="816" y="50" width="4" height="4"></rect><rect x="816" y="58" width="4" height="4"></rect><rect x="816" y="66" width="4" height="4"></rect><rect x="816" y="74" width="4" height="4"></rect><rect x="816" y="82" width="4" height="4"></rect><rect x="816" y="90" width="4" height="4"></rect><rect x="816" y="98" width="4" height="4"></rect><rect x="816" y="106" width="4" height="4"></rect><rect x="816" y="114" width="4" height="4"></rect><rect x="816" y="122" width="4" height="4"></rect><rect x="816" y="130" width="4" height="4"></rect><rect x="816" y="138" width="4" height="4"></rect><rect x="816" y="146" width="4" height="4"></rect><rect x="824" y="50" width="4" height="4"></rect><rect x="824" y="58" width="4" height="4"></rect><rect x="824" y="66" width="4" height="4"></rect><rect x="824" y="74" width="4" height="4"></rect><rect x="824" y="82" width="4" height="4"></rect><rect x="824" y="90" width="4" height="4"></rect><rect x="824" y="98" width="4" height="4"></rect><rect x="824" y="106" width="4" height="4"></rect><rect x="824" y="114" width="4" height="4"></rect><rect x="824" y="122" width="4" height="4"></rect><rect x="824" y="130" width="4" height="4"></rect><rect x="824" y="138" width="4" height="4"></rect><rect x="824" y="146" width="4" height="4"></rect><rect x="832" y="50" width="4" height="4"></rect><rect x="832" y="58" width="4" height="4"></rect><rect x="832" y="66" width="4" height="4"></rect><rect x="832" y="74" width="4" height="4"></rect><rect x="832" y="82" width="4" height="4"></rect><rect x="832" y="90" width="4" height="4"></rect><rect x="832" y="98" width="4" height="4"></rect><rect x="832" y="106" width="4" height="4"></rect><rect x="832" y="114" width="4" height="4"></rect><rect x="832" y="122" width="4" height="4"></rect><rect x="832" y="130" width="4" height="4"></rect><rect x="832" y="138" width="4" height="4"></rect><rect x="832" y="146" width="4" height="4"></rect><rect x="840" y="50" width="4" height="4"></rect><rect x="840" y="58" width="4" height="4"></rect><rect x="840" y="66" width="4" height="4"></rect><rect x="840" y="74" width="4" height="4"></rect><rect x="840" y="82" width="4" height="4"></rect><rect x="840" y="90" width="4" height="4"></rect><rect x="840" y="98" width="4" height="4"></rect><rect x="840" y="106" width="4" height="4"></rect><rect x="840" y="114" width="4" height="4"></rect><rect x="840" y="122" width="4" height="4"></rect><rect x="840" y="130" width="4" height="4"></rect><rect x="840" y="138" width="4" height="4"></rect><rect x="840" y="146" width="4" height="4"></rect><rect x="848" y="50" width="4" height="4"></rect><rect x="848" y="58" width="4" height="4"></rect><rect x="848" y="66" width="4" height="4"></rect><rect x="848" y="74" width="4" height="4"></rect><rect x="848" y="82" width="4" height="4"></rect><rect x="848" y="90" width="4" height="4"></rect><rect x="848" y="98" width="4" height="4"></rect><rect x="848" y="106" width="4" height="4"></rect><rect x="848" y="114" width="4" height="4"></rect><rect x="848" y="122" width="4" height="4"></rect><rect x="848" y="130" width="4" height="4"></rect><rect x="848" y="138" width="4" height="4"></rect><rect x="848" y="146" width="4" height="4"></rect><rect x="856" y="50" width="4" height="4"></rect><rect x="856" y="58" width="4" height="4"></rect><rect x="856" y="66" width="4" height="4"></rect><rect x="856" y="74" width="4" height="4"></rect><rect x="856" y="82" width="4" height="4"></rect><rect x="856" y="90" width="4" height="4"></rect><rect x="856" y="98" width="4" height="4"></rect><rect x="856" y="106" width="4" height="4"></rect><rect x="856" y="114" width="4" height="4"></rect><rect x="856" y="122" width="4" height="4"></rect><rect x="856" y="130" width="4" height="4"></rect><rect x="856" y="138" width="4" height="4"></rect><rect x="856" y="146" width="4" height="4"></rect><rect x="864" y="50" width="4" height="4"></rect><rect x="864" y="58" width="4" height="4"></rect><rect x="864" y="66" width="4" height="4"></rect><rect x="864" y="74" width="4" height="4"></rect><rect x="864" y="82" width="4" height="4"></rect><rect x="864" y="90" width="4" height="4"></rect><rect x="864" y="98" width="4" height="4"></rect><rect x="864" y="106" width="4" height="4"></rect><rect x="864" y="114" width="4" height="4"></rect><rect x="864" y="122" width="4" height="4"></rect><rect x="864" y="130" width="4" height="4"></rect><rect x="864" y="138" width="4" height="4"></rect><rect x="864" y="146" width="4" height="4"></rect></g><rect x="868" y="42" width="8" height="116" fill="#1a589a"></rect><rect x="864" y="42" width="4" height="116" fill="url(#dz3)"></rect><rect x="884" y="78" width="56" height="80"></rect><rect x="880" y="74" width="64" height="4"></rect><g fill="#e9f2fc" fill-opacity="0.22"><rect x="888" y="86" width="4" height="4"></rect><rect x="904" y="86" width="4" height="4"></rect><rect x="912" y="86" width="4" height="4"></rect><rect x="920" y="86" width="4" height="4"></rect><rect x="928" y="86" width="4" height="4"></rect><rect x="888" y="110" width="4" height="4"></rect><rect x="896" y="110" width="4" height="4"></rect><rect x="904" y="110" width="4" height="4"></rect><rect x="888" y="122" width="4" height="4"></rect><rect x="904" y="122" width="4" height="4"></rect><rect x="912" y="122" width="4" height="4"></rect><rect x="920" y="122" width="4" height="4"></rect><rect x="928" y="122" width="4" height="4"></rect><rect x="888" y="134" width="4" height="4"></rect><rect x="904" y="134" width="4" height="4"></rect><rect x="912" y="134" width="4" height="4"></rect><rect x="920" y="134" width="4" height="4"></rect></g><rect x="932" y="78" width="8" height="80" fill="#1a589a"></rect><rect x="928" y="78" width="4" height="80" fill="url(#dz3)"></rect><rect x="952" y="26" width="68" height="132"></rect><rect x="948" y="22" width="76" height="4"></rect><rect x="996" y="2" width="4" height="24"></rect><rect x="992" y="2" width="12" height="4"></rect><g fill="#e9f2fc" fill-opacity="0.22"><rect x="964" y="34" width="4" height="4"></rect><rect x="988" y="34" width="4" height="4"></rect><rect x="1012" y="34" width="4" height="4"></rect><rect x="956" y="58" width="4" height="4"></rect><rect x="964" y="58" width="4" height="4"></rect><rect x="980" y="58" width="4" height="4"></rect><rect x="988" y="58" width="4" height="4"></rect><rect x="996" y="58" width="4" height="4"></rect><rect x="1004" y="58" width="4" height="4"></rect><rect x="1012" y="58" width="4" height="4"></rect><rect x="956" y="70" width="4" height="4"></rect><rect x="964" y="70" width="4" height="4"></rect><rect x="972" y="70" width="4" height="4"></rect><rect x="988" y="70" width="4" height="4"></rect><rect x="996" y="70" width="4" height="4"></rect><rect x="1004" y="70" width="4" height="4"></rect><rect x="1012" y="70" width="4" height="4"></rect><rect x="980" y="106" width="4" height="4"></rect><rect x="988" y="106" width="4" height="4"></rect><rect x="996" y="106" width="4" height="4"></rect><rect x="1004" y="106" width="4" height="4"></rect><rect x="1012" y="106" width="4" height="4"></rect><rect x="956" y="118" width="4" height="4"></rect><rect x="964" y="118" width="4" height="4"></rect><rect x="980" y="118" width="4" height="4"></rect><rect x="996" y="118" width="4" height="4"></rect><rect x="1004" y="118" width="4" height="4"></rect><rect x="964" y="130" width="4" height="4"></rect><rect x="972" y="130" width="4" height="4"></rect><rect x="980" y="130" width="4" height="4"></rect><rect x="988" y="130" width="4" height="4"></rect><rect x="996" y="130" width="4" height="4"></rect><rect x="1004" y="130" width="4" height="4"></rect><rect x="1012" y="130" width="4" height="4"></rect><rect x="956" y="142" width="4" height="4"></rect><rect x="972" y="142" width="4" height="4"></rect><rect x="980" y="142" width="4" height="4"></rect><rect x="988" y="142" width="4" height="4"></rect></g><rect x="1012" y="26" width="8" height="132" fill="#1a589a"></rect><rect x="1008" y="26" width="4" height="132" fill="url(#dz3)"></rect><rect x="1048" y="86" width="44" height="72"></rect><g fill="#e9f2fc" fill-opacity="0.22"><rect x="1052" y="94" width="4" height="4"></rect><rect x="1060" y="94" width="4" height="4"></rect><rect x="1068" y="94" width="4" height="4"></rect><rect x="1076" y="94" width="4" height="4"></rect><rect x="1084" y="94" width="4" height="4"></rect><rect x="1052" y="106" width="4" height="4"></rect><rect x="1060" y="106" width="4" height="4"></rect><rect x="1076" y="106" width="4" height="4"></rect><rect x="1084" y="106" width="4" height="4"></rect><rect x="1060" y="118" width="4" height="4"></rect><rect x="1068" y="118" width="4" height="4"></rect><rect x="1060" y="130" width="4" height="4"></rect><rect x="1068" y="130" width="4" height="4"></rect><rect x="1052" y="142" width="4" height="4"></rect><rect x="1068" y="142" width="4" height="4"></rect><rect x="1076" y="142" width="4" height="4"></rect><rect x="1084" y="142" width="4" height="4"></rect></g><rect x="1084" y="86" width="8" height="72" fill="#1a589a"></rect><rect x="1080" y="86" width="4" height="72" fill="url(#dz3)"></rect><rect x="1060" y="50" width="24" height="36"></rect><g fill="#e9f2fc" fill-opacity="0.22"><rect x="1072" y="58" width="4" height="4"></rect><rect x="1064" y="70" width="4" height="4"></rect><rect x="1072" y="70" width="4" height="4"></rect></g><rect x="1076" y="50" width="8" height="36" fill="#1a589a"></rect><rect x="1072" y="50" width="4" height="36" fill="url(#dz3)"></rect><rect x="1124" y="98" width="60" height="60"></rect><rect x="1120" y="94" width="68" height="4"></rect><rect x="1168" y="86" width="12" height="8"></rect><rect x="1168" y="94" width="4" height="4"></rect><rect x="1176" y="94" width="4" height="4"></rect><rect x="1176" y="98" width="8" height="60" fill="#1a589a"></rect><rect x="1172" y="98" width="4" height="60" fill="url(#dz3)"></rect><rect x="1192" y="98" width="52" height="60"></rect><rect x="1188" y="94" width="60" height="4"></rect><rect x="1192" y="94" width="4" height="4"></rect><rect x="1200" y="94" width="4" height="4"></rect><rect x="1208" y="94" width="4" height="4"></rect><rect x="1216" y="94" width="4" height="4"></rect><rect x="1224" y="94" width="4" height="4"></rect><rect x="1232" y="94" width="4" height="4"></rect><g fill="#e9f2fc" fill-opacity="0.154"><rect x="1196" y="106" width="4" height="4"></rect><rect x="1196" y="114" width="4" height="4"></rect><rect x="1196" y="122" width="4" height="4"></rect><rect x="1196" y="130" width="4" height="4"></rect><rect x="1196" y="138" width="4" height="4"></rect><rect x="1196" y="146" width="4" height="4"></rect><rect x="1204" y="106" width="4" height="4"></rect><rect x="1204" y="114" width="4" height="4"></rect><rect x="1204" y="122" width="4" height="4"></rect><rect x="1204" y="130" width="4" height="4"></rect><rect x="1204" y="138" width="4" height="4"></rect><rect x="1204" y="146" width="4" height="4"></rect><rect x="1212" y="106" width="4" height="4"></rect><rect x="1212" y="114" width="4" height="4"></rect><rect x="1212" y="122" width="4" height="4"></rect><rect x="1212" y="130" width="4" height="4"></rect><rect x="1212" y="138" width="4" height="4"></rect><rect x="1212" y="146" width="4" height="4"></rect><rect x="1220" y="106" width="4" height="4"></rect><rect x="1220" y="114" width="4" height="4"></rect><rect x="1220" y="122" width="4" height="4"></rect><rect x="1220" y="130" width="4" height="4"></rect><rect x="1220" y="138" width="4" height="4"></rect><rect x="1220" y="146" width="4" height="4"></rect><rect x="1228" y="106" width="4" height="4"></rect><rect x="1228" y="114" width="4" height="4"></rect><rect x="1228" y="122" width="4" height="4"></rect><rect x="1228" y="130" width="4" height="4"></rect><rect x="1228" y="138" width="4" height="4"></rect><rect x="1228" y="146" width="4" height="4"></rect><rect x="1236" y="106" width="4" height="4"></rect><rect x="1236" y="114" width="4" height="4"></rect><rect x="1236" y="122" width="4" height="4"></rect><rect x="1236" y="130" width="4" height="4"></rect><rect x="1236" y="138" width="4" height="4"></rect><rect x="1236" y="146" width="4" height="4"></rect></g><rect x="1236" y="98" width="8" height="60" fill="#1a589a"></rect><rect x="1232" y="98" width="4" height="60" fill="url(#dz3)"></rect><rect x="1252" y="130" width="72" height="28"></rect><rect x="1252" y="18" width="32" height="140"></rect><g fill="#e9f2fc" fill-opacity="0.22"><rect x="1256" y="26" width="4" height="4"></rect><rect x="1264" y="26" width="4" height="4"></rect><rect x="1272" y="26" width="4" height="4"></rect><rect x="1256" y="38" width="4" height="4"></rect><rect x="1264" y="50" width="4" height="4"></rect><rect x="1272" y="50" width="4" height="4"></rect><rect x="1256" y="74" width="4" height="4"></rect><rect x="1264" y="74" width="4" height="4"></rect><rect x="1272" y="74" width="4" height="4"></rect><rect x="1256" y="98" width="4" height="4"></rect><rect x="1264" y="98" width="4" height="4"></rect><rect x="1272" y="98" width="4" height="4"></rect><rect x="1264" y="110" width="4" height="4"></rect><rect x="1272" y="110" width="4" height="4"></rect></g><rect x="1276" y="18" width="8" height="112" fill="#1a589a"></rect><rect x="1272" y="18" width="4" height="112" fill="url(#dz3)"></rect><rect x="1292" y="54" width="32" height="104"></rect><g fill="#e9f2fc" fill-opacity="0.22"><rect x="1312" y="62" width="4" height="4"></rect><rect x="1296" y="74" width="4" height="4"></rect><rect x="1312" y="74" width="4" height="4"></rect><rect x="1304" y="98" width="4" height="4"></rect><rect x="1312" y="98" width="4" height="4"></rect></g><rect x="1316" y="54" width="8" height="76" fill="#1a589a"></rect><rect x="1312" y="54" width="4" height="76" fill="url(#dz3)"></rect><rect x="1372" y="130" width="76" height="28"></rect><rect x="1372" y="54" width="32" height="104"></rect><g fill="#e9f2fc" fill-opacity="0.22"><rect x="1376" y="98" width="4" height="4"></rect><rect x="1384" y="98" width="4" height="4"></rect><rect x="1392" y="98" width="4" height="4"></rect><rect x="1376" y="110" width="4" height="4"></rect><rect x="1384" y="110" width="4" height="4"></rect><rect x="1392" y="110" width="4" height="4"></rect></g><rect x="1396" y="54" width="8" height="76" fill="#1a589a"></rect><rect x="1392" y="54" width="4" height="76" fill="url(#dz3)"></rect><rect x="1372" y="50" width="4" height="4"></rect><rect x="1380" y="50" width="4" height="4"></rect><rect x="1388" y="50" width="4" height="4"></rect><rect x="1396" y="50" width="4" height="4"></rect><rect x="1416" y="78" width="32" height="80"></rect><g fill="#e9f2fc" fill-opacity="0.22"><rect x="1428" y="86" width="4" height="4"></rect><rect x="1428" y="98" width="4" height="4"></rect><rect x="1420" y="110" width="4" height="4"></rect><rect x="1428" y="110" width="4" height="4"></rect></g><rect x="1440" y="78" width="8" height="52" fill="#1a589a"></rect><rect x="1436" y="78" width="4" height="52" fill="url(#dz3)"></rect><rect x="1456" y="86" width="68" height="72"></rect><g fill="#e9f2fc" fill-opacity="0.154"><rect x="1460" y="94" width="4" height="4"></rect><rect x="1460" y="102" width="4" height="4"></rect><rect x="1460" y="110" width="4" height="4"></rect><rect x="1460" y="118" width="4" height="4"></rect><rect x="1460" y="126" width="4" height="4"></rect><rect x="1460" y="134" width="4" height="4"></rect><rect x="1460" y="142" width="4" height="4"></rect><rect x="1468" y="94" width="4" height="4"></rect><rect x="1468" y="102" width="4" height="4"></rect><rect x="1468" y="110" width="4" height="4"></rect><rect x="1468" y="118" width="4" height="4"></rect><rect x="1468" y="126" width="4" height="4"></rect><rect x="1468" y="134" width="4" height="4"></rect><rect x="1468" y="142" width="4" height="4"></rect><rect x="1476" y="94" width="4" height="4"></rect><rect x="1476" y="102" width="4" height="4"></rect><rect x="1476" y="110" width="4" height="4"></rect><rect x="1476" y="118" width="4" height="4"></rect><rect x="1476" y="126" width="4" height="4"></rect><rect x="1476" y="134" width="4" height="4"></rect><rect x="1476" y="142" width="4" height="4"></rect><rect x="1484" y="94" width="4" height="4"></rect><rect x="1484" y="102" width="4" height="4"></rect><rect x="1484" y="110" width="4" height="4"></rect><rect x="1484" y="118" width="4" height="4"></rect><rect x="1484" y="126" width="4" height="4"></rect><rect x="1484" y="134" width="4" height="4"></rect><rect x="1484" y="142" width="4" height="4"></rect><rect x="1492" y="94" width="4" height="4"></rect><rect x="1492" y="102" width="4" height="4"></rect><rect x="1492" y="110" width="4" height="4"></rect><rect x="1492" y="118" width="4" height="4"></rect><rect x="1492" y="126" width="4" height="4"></rect><rect x="1492" y="134" width="4" height="4"></rect><rect x="1492" y="142" width="4" height="4"></rect><rect x="1500" y="94" width="4" height="4"></rect><rect x="1500" y="102" width="4" height="4"></rect><rect x="1500" y="110" width="4" height="4"></rect><rect x="1500" y="118" width="4" height="4"></rect><rect x="1500" y="126" width="4" height="4"></rect><rect x="1500" y="134" width="4" height="4"></rect><rect x="1500" y="142" width="4" height="4"></rect><rect x="1508" y="94" width="4" height="4"></rect><rect x="1508" y="102" width="4" height="4"></rect><rect x="1508" y="110" width="4" height="4"></rect><rect x="1508" y="118" width="4" height="4"></rect><rect x="1508" y="126" width="4" height="4"></rect><rect x="1508" y="134" width="4" height="4"></rect><rect x="1508" y="142" width="4" height="4"></rect><rect x="1516" y="94" width="4" height="4"></rect><rect x="1516" y="102" width="4" height="4"></rect><rect x="1516" y="110" width="4" height="4"></rect><rect x="1516" y="118" width="4" height="4"></rect><rect x="1516" y="126" width="4" height="4"></rect><rect x="1516" y="134" width="4" height="4"></rect><rect x="1516" y="142" width="4" height="4"></rect></g><rect x="1516" y="86" width="8" height="72" fill="#1a589a"></rect><rect x="1512" y="86" width="4" height="72" fill="url(#dz3)"></rect><rect x="1468" y="46" width="44" height="40"></rect><g fill="#e9f2fc" fill-opacity="0.22"><rect x="1480" y="66" width="4" height="4"></rect></g><rect x="1504" y="46" width="8" height="40" fill="#1a589a"></rect><rect x="1500" y="46" width="4" height="40" fill="url(#dz3)"></rect><rect x="1476" y="34" width="12" height="8"></rect><rect x="1476" y="42" width="4" height="4"></rect><rect x="1484" y="42" width="4" height="4"></rect><rect x="1532" y="22" width="80" height="136"></rect><rect x="1528" y="18" width="88" height="4"></rect><rect x="1540" y="14" width="20" height="8"></rect><g fill="#e9f2fc" fill-opacity="0.22"><rect x="1536" y="30" width="4" height="4"></rect><rect x="1544" y="30" width="4" height="4"></rect><rect x="1552" y="30" width="4" height="4"></rect><rect x="1584" y="30" width="4" height="4"></rect><rect x="1592" y="30" width="4" height="4"></rect><rect x="1536" y="42" width="4" height="4"></rect><rect x="1552" y="42" width="4" height="4"></rect><rect x="1568" y="42" width="4" height="4"></rect><rect x="1576" y="42" width="4" height="4"></rect><rect x="1592" y="42" width="4" height="4"></rect><rect x="1536" y="66" width="4" height="4"></rect><rect x="1544" y="66" width="4" height="4"></rect><rect x="1552" y="66" width="4" height="4"></rect><rect x="1560" y="66" width="4" height="4"></rect><rect x="1568" y="66" width="4" height="4"></rect><rect x="1576" y="66" width="4" height="4"></rect><rect x="1592" y="66" width="4" height="4"></rect><rect x="1600" y="66" width="4" height="4"></rect><rect x="1536" y="78" width="4" height="4"></rect><rect x="1544" y="78" width="4" height="4"></rect><rect x="1552" y="78" width="4" height="4"></rect><rect x="1560" y="78" width="4" height="4"></rect><rect x="1568" y="78" width="4" height="4"></rect><rect x="1584" y="78" width="4" height="4"></rect><rect x="1592" y="78" width="4" height="4"></rect><rect x="1600" y="78" width="4" height="4"></rect><rect x="1544" y="90" width="4" height="4"></rect><rect x="1560" y="90" width="4" height="4"></rect><rect x="1568" y="90" width="4" height="4"></rect><rect x="1576" y="90" width="4" height="4"></rect><rect x="1584" y="90" width="4" height="4"></rect><rect x="1592" y="90" width="4" height="4"></rect><rect x="1600" y="90" width="4" height="4"></rect><rect x="1536" y="102" width="4" height="4"></rect><rect x="1552" y="102" width="4" height="4"></rect><rect x="1568" y="102" width="4" height="4"></rect><rect x="1536" y="114" width="4" height="4"></rect><rect x="1552" y="114" width="4" height="4"></rect><rect x="1560" y="114" width="4" height="4"></rect><rect x="1568" y="114" width="4" height="4"></rect><rect x="1576" y="114" width="4" height="4"></rect><rect x="1592" y="114" width="4" height="4"></rect><rect x="1600" y="114" width="4" height="4"></rect><rect x="1544" y="126" width="4" height="4"></rect><rect x="1560" y="126" width="4" height="4"></rect><rect x="1568" y="126" width="4" height="4"></rect><rect x="1584" y="126" width="4" height="4"></rect><rect x="1592" y="126" width="4" height="4"></rect><rect x="1600" y="126" width="4" height="4"></rect></g><rect x="1604" y="22" width="8" height="136" fill="#1a589a"></rect><rect x="1600" y="22" width="4" height="136" fill="url(#dz3)"></rect></g></svg>