<svg xmlns="http://www.w3.org/2000/svg" width="1600" height="311" viewBox="0 0 1600 311" shape-rendering="crispEdges"><defs><pattern id="dz5" width="8" height="8" patternUnits="userSpaceOnUse"><rect width="4" height="4" fill="#87b8ea"></rect><rect x="4" y="4" width="4" height="4" fill="#87b8ea"></rect></pattern></defs><g fill="#9ac6f0"><rect x="8" y="171" width="60" height="140"></rect><rect x="4" y="167" width="68" height="4"></rect><rect x="20" y="163" width="20" height="8"></rect><rect x="44" y="147" width="4" height="24"></rect><rect x="40" y="147" width="12" height="4"></rect><rect x="60" y="171" width="8" height="140" fill="#87b8ea"></rect><rect x="56" y="171" width="4" height="140" fill="url(#dz5)"></rect><rect x="72" y="199" width="76" height="112"></rect><rect x="140" y="199" width="8" height="112" fill="#87b8ea"></rect><rect x="136" y="199" width="4" height="112" fill="url(#dz5)"></rect><rect x="84" y="131" width="52" height="68"></rect><rect x="128" y="131" width="8" height="68" fill="#87b8ea"></rect><rect x="124" y="131" width="4" height="68" fill="url(#dz5)"></rect><rect x="92" y="87" width="36" height="44"></rect><rect x="120" y="87" width="8" height="44" fill="#87b8ea"></rect><rect x="116" y="87" width="4" height="44" fill="url(#dz5)"></rect><rect x="156" y="111" width="84" height="200"></rect><rect x="152" y="107" width="92" height="4"></rect><rect x="232" y="111" width="8" height="200" fill="#87b8ea"></rect><rect x="228" y="111" width="4" height="200" fill="url(#dz5)"></rect><rect x="244" y="43" width="84" height="268"></rect><rect x="240" y="39" width="92" height="4"></rect><rect x="244" y="39" width="4" height="4"></rect><rect x="252" y="39" width="4" height="4"></rect><rect x="260" y="39" width="4" height="4"></rect><rect x="268" y="39" width="4" height="4"></rect><rect x="276" y="39" width="4" height="4"></rect><rect x="284" y="39" width="4" height="4"></rect><rect x="292" y="39" width="4" height="4"></rect><rect x="300" y="39" width="4" height="4"></rect><rect x="308" y="39" width="4" height="4"></rect><rect x="316" y="39" width="4" height="4"></rect><rect x="280" y="15" width="4" height="28"></rect><rect x="276" y="15" width="12" height="4"></rect><rect x="320" y="43" width="8" height="268" fill="#87b8ea"></rect><rect x="316" y="43" width="4" height="268" fill="url(#dz5)"></rect><rect x="352" y="239" width="60" height="72"></rect><rect x="404" y="239" width="8" height="72" fill="#87b8ea"></rect><rect x="400" y="239" width="4" height="72" fill="url(#dz5)"></rect><rect x="364" y="199" width="40" height="40"></rect><rect x="396" y="199" width="8" height="40" fill="#87b8ea"></rect><rect x="392" y="199" width="4" height="40" fill="url(#dz5)"></rect><rect x="416" y="91" width="64" height="220"></rect><rect x="412" y="87" width="72" height="4"></rect><rect x="420" y="83" width="24" height="8"></rect><rect x="416" y="87" width="4" height="4"></rect><rect x="424" y="87" width="4" height="4"></rect><rect x="432" y="87" width="4" height="4"></rect><rect x="440" y="87" width="4" height="4"></rect><rect x="448" y="87" width="4" height="4"></rect><rect x="456" y="87" width="4" height="4"></rect><rect x="464" y="87" width="4" height="4"></rect><rect x="472" y="87" width="4" height="4"></rect><rect x="460" y="79" width="12" height="8"></rect><rect x="460" y="87" width="4" height="4"></rect><rect x="468" y="87" width="4" height="4"></rect><rect x="452" y="67" width="4" height="24"></rect><rect x="448" y="67" width="12" height="4"></rect><rect x="472" y="91" width="8" height="220" fill="#87b8ea"></rect><rect x="468" y="91" width="4" height="220" fill="url(#dz5)"></rect><rect x="488" y="167" width="72" height="144"></rect><rect x="552" y="167" width="8" height="144" fill="#87b8ea"></rect><rect x="548" y="167" width="4" height="144" fill="url(#dz5)"></rect><rect x="500" y="79" width="48" height="88"></rect><rect x="540" y="79" width="8" height="88" fill="#87b8ea"></rect><rect x="536" y="79" width="4" height="88" fill="url(#dz5)"></rect><rect x="512" y="23" width="28" height="56"></rect><rect x="532" y="23" width="8" height="56" fill="#87b8ea"></rect><rect x="528" y="23" width="4" height="56" fill="url(#dz5)"></rect><rect x="564" y="143" width="52" height="168"></rect><rect x="560" y="139" width="60" height="4"></rect><rect x="584" y="111" width="4" height="32"></rect><rect x="580" y="111" width="12" height="4"></rect><rect x="608" y="143" width="8" height="168" fill="#87b8ea"></rect><rect x="604" y="143" width="4" height="168" fill="url(#dz5)"></rect><rect x="624" y="187" width="44" height="124"></rect><rect x="660" y="187" width="8" height="124" fill="#87b8ea"></rect><rect x="656" y="187" width="4" height="124" fill="url(#dz5)"></rect><rect x="632" y="119" width="32" height="68"></rect><rect x="656" y="119" width="8" height="68" fill="#87b8ea"></rect><rect x="652" y="119" width="4" height="68" fill="url(#dz5)"></rect><rect x="644" y="83" width="4" height="36"></rect><rect x="640" y="83" width="12" height="4"></rect><rect x="676" y="103" width="72" height="208"></rect><rect x="672" y="99" width="80" height="4"></rect><rect x="740" y="103" width="8" height="208" fill="#87b8ea"></rect><rect x="736" y="103" width="4" height="208" fill="url(#dz5)"></rect><rect x="752" y="147" width="40" height="164"></rect><rect x="748" y="143" width="48" height="4"></rect><rect x="764" y="139" width="24" height="8"></rect><rect x="752" y="143" width="4" height="4"></rect><rect x="760" y="143" width="4" height="4"></rect><rect x="768" y="143" width="4" height="4"></rect><rect x="776" y="143" width="4" height="4"></rect><rect x="784" y="143" width="4" height="4"></rect><rect x="760" y="135" width="12" height="8"></rect><rect x="760" y="143" width="4" height="4"></rect><rect x="768" y="143" width="4" height="4"></rect><rect x="776" y="127" width="4" height="20"></rect><rect x="772" y="127" width="12" height="4"></rect><rect x="784" y="147" width="8" height="164" fill="#87b8ea"></rect><rect x="780" y="147" width="4" height="164" fill="url(#dz5)"></rect><rect x="796" y="83" width="80" height="228"></rect><rect x="792" y="79" width="88" height="4"></rect><rect x="844" y="47" width="4" height="36"></rect><rect x="840" y="47" width="12" height="4"></rect><rect x="868" y="83" width="8" height="228" fill="#87b8ea"></rect><rect x="864" y="83" width="4" height="228" fill="url(#dz5)"></rect><rect x="896" y="95" width="76" height="216"></rect><rect x="892" y="91" width="84" height="4"></rect><rect x="964" y="95" width="8" height="216" fill="#87b8ea"></rect><rect x="960" y="95" width="4" height="216" fill="url(#dz5)"></rect><rect x="980" y="139" width="68" height="172"></rect><rect x="976" y="135" width="76" height="4"></rect><rect x="1040" y="139" width="8" height="172" fill="#87b8ea"></rect><rect x="1036" y="139" width="4" height="172" fill="url(#dz5)"></rect><rect x="1056" y="207" width="72" height="104"></rect><rect x="1120" y="207" width="8" height="104" fill="#87b8ea"></rect><rect x="1116" y="207" width="4" height="104" fill="url(#dz5)"></rect><rect x="1068" y="151" width="52" height="56"></rect><rect x="1112" y="151" width="8" height="56" fill="#87b8ea"></rect><rect x="1108" y="151" width="4" height="56" fill="url(#dz5)"></rect><rect x="1156" y="99" width="48" height="212"></rect><rect x="1152" y="95" width="56" height="4"></rect><rect x="1156" y="95" width="4" height="4"></rect><rect x="1164" y="95" width="4" height="4"></rect><rect x="1172" y="95" width="4" height="4"></rect><rect x="1180" y="95" width="4" height="4"></rect><rect x="1188" y="95" width="4" height="4"></rect><rect x="1196" y="95" width="4" height="4"></rect><rect x="1168" y="87" width="12" height="8"></rect><rect x="1168" y="95" width="4" height="4"></rect><rect x="1176" y="95" width="4" height="4"></rect><rect x="1196" y="99" width="8" height="212" fill="#87b8ea"></rect><rect x="1192" y="99" width="4" height="212" fill="url(#dz5)"></rect><rect x="1208" y="183" width="52" height="128"></rect><rect x="1252" y="183" width="8" height="128" fill="#87b8ea"></rect><rect x="1248" y="183" width="4" height="128" fill="url(#dz5)"></rect><rect x="1216" y="107" width="36" height="76"></rect><rect x="1244" y="107" width="8" height="76" fill="#87b8ea"></rect><rect x="1240" y="107" width="4" height="76" fill="url(#dz5)"></rect><rect x="1224" y="55" width="24" height="52"></rect><rect x="1240" y="55" width="8" height="52" fill="#87b8ea"></rect><rect x="1236" y="55" width="4" height="52" fill="url(#dz5)"></rect><rect x="1268" y="287" width="84" height="24"></rect><rect x="1268" y="199" width="36" height="112"></rect><rect x="1296" y="199" width="8" height="88" fill="#87b8ea"></rect><rect x="1292" y="199" width="4" height="88" fill="url(#dz5)"></rect><rect x="1268" y="195" width="4" height="4"></rect><rect x="1276" y="195" width="4" height="4"></rect><rect x="1284" y="195" width="4" height="4"></rect><rect x="1292" y="195" width="4" height="4"></rect><rect x="1284" y="187" width="12" height="8"></rect><rect x="1284" y="195" width="4" height="4"></rect><rect x="1292" y="195" width="4" height="4"></rect><rect x="1316" y="219" width="36" height="92"></rect><rect x="1344" y="219" width="8" height="68" fill="#87b8ea"></rect><rect x="1340" y="219" width="4" height="68" fill="url(#dz5)"></rect><rect x="1360" y="179" width="40" height="132"></rect><rect x="1356" y="175" width="48" height="4"></rect><rect x="1368" y="171" width="16" height="8"></rect><rect x="1380" y="163" width="4" height="16"></rect><rect x="1376" y="163" width="12" height="4"></rect><rect x="1392" y="179" width="8" height="132" fill="#87b8ea"></rect><rect x="1388" y="179" width="4" height="132" fill="url(#dz5)"></rect><rect x="1416" y="199" width="76" height="112"></rect><rect x="1420" y="195" width="68" height="4"></rect><rect x="1424" y="191" width="60" height="4"></rect><rect x="1428" y="187" width="52" height="4"></rect><rect x="1432" y="183" width="44" height="4"></rect><rect x="1436" y="179" width="36" height="4"></rect><rect x="1440" y="175" width="28" height="4"></rect><rect x="1444" y="171" width="20" height="4"></rect><rect x="1448" y="167" width="12" height="4"></rect><rect x="1452" y="163" width="4" height="4"></rect><rect x="1453" y="143" width="4" height="24"></rect><rect x="1484" y="199" width="8" height="112" fill="#87b8ea"></rect><rect x="1480" y="199" width="4" height="112" fill="url(#dz5)"></rect><rect x="1500" y="111" width="52" height="200"></rect><rect x="1496" y="107" width="60" height="4"></rect><rect x="1528" y="99" width="12" height="8"></rect><rect x="1528" y="107" width="4" height="4"></rect><rect x="1536" y="107" width="4" height="4"></rect><rect x="1532" y="79" width="4" height="32"></rect><rect x="1528" y="79" width="12" height="4"></rect><rect x="1544" y="111" width="8" height="200" fill="#87b8ea"></rect><rect x="1540" y="111" width="4" height="200" fill="url(#dz5)"></rect></g></svg>