<svg xmlns="http://www.w3.org/2000/svg" width="96" height="32" viewBox="0 0 96 32" shape-rendering="crispEdges"><rect x="8" y="0" width="4" height="4" fill="#0e2a44"></rect><rect x="12" y="0" width="4" height="4" fill="#0e2a44"></rect><rect x="16" y="0" width="4" height="4" fill="#0e2a44"></rect><rect x="20" y="0" width="4" height="4" fill="#0e2a44"></rect><rect x="24" y="0" width="4" height="4" fill="#0e2a44"></rect><rect x="28" y="0" width="4" height="4" fill="#0e2a44"></rect><rect x="32" y="0" width="4" height="4" fill="#0e2a44"></rect><rect x="36" y="0" width="4" height="4" fill="#0e2a44"></rect><rect x="40" y="0" width="4" height="4" fill="#0e2a44"></rect><rect x="44" y="0" width="4" height="4" fill="#0e2a44"></rect><rect x="48" y="0" width="4" height="4" fill="#0e2a44"></rect><rect x="52" y="0" width="4" height="4" fill="#0e2a44"></rect><rect x="56" y="0" width="4" height="4" fill="#0e2a44"></rect><rect x="60" y="0" width="4" height="4" fill="#0e2a44"></rect><rect x="64" y="0" width="4" height="4" fill="#0e2a44"></rect><rect x="68" y="0" width="4" height="4" fill="#0e2a44"></rect><rect x="72" y="0" width="4" height="4" fill="#0e2a44"></rect><rect x="76" y="0" width="4" height="4" fill="#0e2a44"></rect><rect x="80" y="0" width="4" height="4" fill="#0e2a44"></rect><rect x="84" y="0" width="4" height="4" fill="#0e2a44"></rect><rect x="44" y="4" width="4" height="4" fill="#0e2a44"></rect><rect x="24" y="8" width="4" height="4" fill="#0e2a44"></rect><rect x="28" y="8" width="4" height="4" fill="#0e2a44"></rect><rect x="32" y="8" width="4" height="4" fill="#0e2a44"></rect><rect x="36" y="8" width="4" height="4" fill="#0e2a44"></rect><rect x="40" y="8" width="4" height="4" fill="#0e2a44"></rect><rect x="44" y="8" width="4" height="4" fill="#0e2a44"></rect><rect x="48" y="8" width="4" height="4" fill="#0e2a44"></rect><rect x="52" y="8" width="4" height="4" fill="#0e2a44"></rect><rect x="88" y="8" width="4" height="4" fill="#0e2a44"></rect><rect x="20" y="12" width="4" height="4" fill="#0e2a44"></rect><rect x="24" y="12" width="4" height="4" fill="#0e2a44"></rect><rect x="28" y="12" width="4" height="4" fill="#0e2a44"></rect><rect x="32" y="12" width="4" height="4" fill="#0e2a44"></rect><rect x="36" y="12" width="4" height="4" fill="#0e2a44"></rect><rect x="40" y="12" width="4" height="4" fill="#0e2a44"></rect><rect x="44" y="12" width="4" height="4" fill="#0e2a44"></rect><rect x="48" y="12" width="4" height="4" fill="#0e2a44"></rect><rect x="52" y="12" width="4" height="4" fill="#0e2a44"></rect><rect x="56" y="12" width="4" height="4" fill="#0e2a44"></rect><rect x="68" y="12" width="4" height="4" fill="#0e2a44"></rect><rect x="72" y="12" width="4" height="4" fill="#0e2a44"></rect><rect x="76" y="12" width="4" height="4" fill="#0e2a44"></rect><rect x="80" y="12" width="4" height="4" fill="#0e2a44"></rect><rect x="84" y="12" width="4" height="4" fill="#0e2a44"></rect><rect x="88" y="12" width="4" height="4" fill="#0e2a44"></rect><rect x="92" y="12" width="4" height="4" fill="#0e2a44"></rect><rect x="20" y="16" width="4" height="4" fill="#0e2a44"></rect><rect x="24" y="16" width="4" height="4" fill="#0e2a44"></rect><rect x="28" y="16" width="4" height="4" fill="#0e2a44"></rect><rect x="32" y="16" width="4" height="4" fill="#0e2a44"></rect><rect x="36" y="16" width="4" height="4" fill="#0e2a44"></rect><rect x="40" y="16" width="4" height="4" fill="#0e2a44"></rect><rect x="44" y="16" width="4" height="4" fill="#0e2a44"></rect><rect x="48" y="16" width="4" height="4" fill="#0e2a44"></rect><rect x="52" y="16" width="4" height="4" fill="#0e2a44"></rect><rect x="56" y="16" width="4" height="4" fill="#0e2a44"></rect><rect x="60" y="16" width="4" height="4" fill="#0e2a44"></rect><rect x="24" y="20" width="4" height="4" fill="#0e2a44"></rect><rect x="28" y="20" width="4" height="4" fill="#0e2a44"></rect><rect x="32" y="20" width="4" height="4" fill="#0e2a44"></rect><rect x="36" y="20" width="4" height="4" fill="#0e2a44"></rect><rect x="40" y="20" width="4" height="4" fill="#0e2a44"></rect><rect x="44" y="20" width="4" height="4" fill="#0e2a44"></rect><rect x="48" y="20" width="4" height="4" fill="#0e2a44"></rect><rect x="52" y="20" width="4" height="4" fill="#0e2a44"></rect><rect x="56" y="20" width="4" height="4" fill="#0e2a44"></rect><rect x="32" y="24" width="4" height="4" fill="#0e2a44"></rect><rect x="52" y="24" width="4" height="4" fill="#0e2a44"></rect><rect x="24" y="28" width="4" height="4" fill="#0e2a44"></rect><rect x="28" y="28" width="4" height="4" fill="#0e2a44"></rect><rect x="32" y="28" width="4" height="4" fill="#0e2a44"></rect><rect x="36" y="28" width="4" height="4" fill="#0e2a44"></rect><rect x="40" y="28" width="4" height="4" fill="#0e2a44"></rect><rect x="44" y="28" width="4" height="4" fill="#0e2a44"></rect><rect x="48" y="28" width="4" height="4" fill="#0e2a44"></rect><rect x="52" y="28" width="4" height="4" fill="#0e2a44"></rect><rect x="56" y="28" width="4" height="4" fill="#0e2a44"></rect><rect x="60" y="28" width="4" height="4" fill="#0e2a44"></rect><rect x="64" y="28" width="4" height="4" fill="#0e2a44"></rect></svg>