<svg xmlns="http://www.w3.org/2000/svg" width="60" height="15" viewBox="0 0 60 15" shape-rendering="crispEdges"><rect x="0" y="0" width="3" height="3" fill="#9ac6f0"></rect><rect x="3" y="0" width="3" height="3" fill="#9ac6f0"></rect><rect x="0" y="3" width="3" height="3" fill="#9ac6f0"></rect><rect x="3" y="3" width="3" height="3" fill="#9ac6f0"></rect><rect x="27" y="3" width="3" height="3" fill="#9ac6f0"></rect><rect x="30" y="3" width="3" height="3" fill="#9ac6f0"></rect><rect x="33" y="3" width="3" height="3" fill="#9ac6f0"></rect><rect x="36" y="3" width="3" height="3" fill="#9ac6f0"></rect><rect x="3" y="6" width="3" height="3" fill="#9ac6f0"></rect><rect x="6" y="6" width="3" height="3" fill="#9ac6f0"></rect><rect x="9" y="6" width="3" height="3" fill="#9ac6f0"></rect><rect x="12" y="6" width="3" height="3" fill="#9ac6f0"></rect><rect x="15" y="6" width="3" height="3" fill="#9ac6f0"></rect><rect x="18" y="6" width="3" height="3" fill="#9ac6f0"></rect><rect x="21" y="6" width="3" height="3" fill="#9ac6f0"></rect><rect x="24" y="6" width="3" height="3" fill="#9ac6f0"></rect><rect x="27" y="6" width="3" height="3" fill="#9ac6f0"></rect><rect x="30" y="6" width="3" height="3" fill="#9ac6f0"></rect><rect x="33" y="6" width="3" height="3" fill="#9ac6f0"></rect><rect x="36" y="6" width="3" height="3" fill="#9ac6f0"></rect><rect x="39" y="6" width="3" height="3" fill="#9ac6f0"></rect><rect x="42" y="6" width="3" height="3" fill="#9ac6f0"></rect><rect x="45" y="6" width="3" height="3" fill="#9ac6f0"></rect><rect x="48" y="6" width="3" height="3" fill="#9ac6f0"></rect><rect x="51" y="6" width="3" height="3" fill="#9ac6f0"></rect><rect x="54" y="6" width="3" height="3" fill="#9ac6f0"></rect><rect x="9" y="9" width="3" height="3" fill="#9ac6f0"></rect><rect x="12" y="9" width="3" height="3" fill="#9ac6f0"></rect><rect x="15" y="9" width="3" height="3" fill="#9ac6f0"></rect><rect x="18" y="9" width="3" height="3" fill="#9ac6f0"></rect><rect x="21" y="9" width="3" height="3" fill="#9ac6f0"></rect><rect x="24" y="9" width="3" height="3" fill="#9ac6f0"></rect><rect x="27" y="9" width="3" height="3" fill="#9ac6f0"></rect><rect x="30" y="9" width="3" height="3" fill="#9ac6f0"></rect><rect x="33" y="9" width="3" height="3" fill="#9ac6f0"></rect><rect x="36" y="9" width="3" height="3" fill="#9ac6f0"></rect><rect x="39" y="9" width="3" height="3" fill="#9ac6f0"></rect><rect x="42" y="9" width="3" height="3" fill="#9ac6f0"></rect><rect x="45" y="9" width="3" height="3" fill="#9ac6f0"></rect><rect x="21" y="12" width="3" height="3" fill="#9ac6f0"></rect><rect x="24" y="12" width="3" height="3" fill="#9ac6f0"></rect><rect x="27" y="12" width="3" height="3" fill="#9ac6f0"></rect><rect x="30" y="12" width="3" height="3" fill="#9ac6f0"></rect></svg>