<svg width="625" height="625" viewBox="0 0 625 625" fill="none" xmlns="http://www.w3.org/2000/svg">
<path d="M312.257 195.989C376.458 195.989 428.503 248.034 428.503 312.235C428.503 376.436 376.458 428.481 312.257 428.481C248.056 428.481 196.011 376.436 196.011 312.235C196.011 248.034 248.056 195.989 312.257 195.989Z" fill="#7F6CFD" stroke="#7F6CFD" stroke-width="4.58746"/>
<path d="M104.958 417.206C47.369 303.449 93.5218 162.544 207.323 104.933C254.967 80.814 309.456 73.8665 361.611 85.2107L359.42 95.283C355.492 113.341 337.62 124.477 319.152 123.797C287.431 122.63 255.735 129.483 227.092 143.983C134.863 190.673 97.3345 305.242 144.008 397.437C190.684 489.638 305.199 527.229 397.423 480.541C479.531 438.974 518.299 343.643 492.876 258.144C487.609 240.43 493.874 220.321 510.362 211.974L519.557 207.319C577.167 321.118 530.991 461.982 417.192 519.592C303.385 577.206 162.544 530.958 104.958 417.206Z" fill="#7F6CFD"/>
</svg>
