<svg width="1178" height="407" viewBox="0 0 1178 407" fill="none" xmlns="http://www.w3.org/2000/svg">
<path d="M492.446 170.249C492.446 180.694 490.56 189.72 486.788 197.328C483.016 204.936 477.842 210.804 471.266 214.93C464.69 219.056 457.178 221.12 448.732 221.12C440.286 221.12 432.775 219.056 426.198 214.93C419.622 210.804 414.448 204.936 410.676 197.328C406.904 189.72 405.018 180.694 405.018 170.249C405.018 159.804 406.904 150.778 410.676 143.17C414.448 135.562 419.622 129.695 426.198 125.568C432.775 121.442 440.286 119.379 448.732 119.379C457.178 119.379 464.69 121.442 471.266 125.568C477.842 129.695 483.016 135.562 486.788 143.17C490.56 150.778 492.446 159.804 492.446 170.249ZM480.84 170.249C480.84 161.674 479.406 154.437 476.537 148.537C473.7 142.638 469.847 138.173 464.98 135.143C460.144 132.112 454.728 130.597 448.732 130.597C442.736 130.597 437.304 132.112 432.436 135.143C427.601 138.173 423.748 142.638 420.879 148.537C418.042 154.437 416.624 161.674 416.624 170.249C416.624 178.824 418.042 186.062 420.879 191.961C423.748 197.86 427.601 202.325 432.436 205.356C437.304 208.386 442.736 209.901 448.732 209.901C454.728 209.901 460.144 208.386 464.98 205.356C469.847 202.325 473.7 197.86 476.537 191.961C479.406 186.062 480.84 178.824 480.84 170.249ZM512.61 219.766V120.733H546.073C553.842 120.733 560.192 122.135 565.125 124.94C570.089 127.712 573.764 131.468 576.15 136.207C578.535 140.945 579.728 146.232 579.728 152.067C579.728 157.902 578.535 163.205 576.15 167.976C573.797 172.748 570.154 176.552 565.221 179.388C560.289 182.193 553.971 183.595 546.266 183.595H522.281V172.957H545.879C551.198 172.957 555.47 172.038 558.693 170.201C561.917 168.363 564.254 165.881 565.705 162.754C567.188 159.595 567.929 156.033 567.929 152.067C567.929 148.102 567.188 144.556 565.705 141.429C564.254 138.302 561.901 135.852 558.645 134.079C555.389 132.274 551.069 131.371 545.686 131.371H524.602V219.766H512.61ZM593.631 131.371V120.733H667.905V131.371H636.764V219.766H624.772V131.371H593.631ZM698.406 120.733V219.766H686.413V120.733H698.406ZM722.451 120.733H736.764L770.42 202.938H771.58L805.236 120.733H819.549V219.766H808.331V144.524H807.364L776.416 219.766H765.584L734.636 144.524H733.669V219.766H722.451V120.733ZM855.587 120.733V219.766H843.594V120.733H855.587ZM933.79 145.491C933.21 140.591 930.857 136.787 926.73 134.079C922.604 131.371 917.543 130.017 911.546 130.017C907.162 130.017 903.326 130.726 900.038 132.145C896.782 133.563 894.235 135.514 892.398 137.996C890.592 140.478 889.69 143.299 889.69 146.458C889.69 149.102 890.318 151.374 891.575 153.276C892.865 155.146 894.509 156.71 896.508 157.967C898.507 159.192 900.602 160.207 902.794 161.013C904.986 161.787 907.001 162.416 908.839 162.899L918.897 165.607C921.476 166.284 924.345 167.219 927.504 168.412C930.695 169.604 933.742 171.232 936.643 173.296C939.577 175.327 941.995 177.938 943.897 181.129C945.799 184.321 946.75 188.238 946.75 192.88C946.75 198.231 945.347 203.067 942.543 207.387C939.77 211.706 935.708 215.14 930.357 217.686C925.038 220.233 918.574 221.506 910.966 221.506C903.874 221.506 897.733 220.362 892.543 218.073C887.385 215.784 883.323 212.593 880.357 208.499C877.423 204.405 875.763 199.65 875.376 194.234H887.755C888.078 197.973 889.335 201.068 891.527 203.518C893.752 205.936 896.556 207.741 899.941 208.934C903.358 210.094 907.033 210.675 910.966 210.675C915.544 210.675 919.654 209.933 923.297 208.45C926.94 206.935 929.825 204.84 931.953 202.164C934.08 199.456 935.144 196.297 935.144 192.686C935.144 189.398 934.225 186.722 932.388 184.659C930.55 182.596 928.133 180.92 925.134 179.63C922.136 178.341 918.897 177.212 915.415 176.245L903.229 172.764C895.492 170.539 889.367 167.364 884.854 163.238C880.341 159.111 878.084 153.711 878.084 147.038C878.084 141.494 879.583 136.658 882.581 132.532C885.612 128.373 889.673 125.149 894.767 122.86C899.893 120.539 905.615 119.379 911.933 119.379C918.316 119.379 923.99 120.523 928.955 122.812C933.919 125.069 937.852 128.163 940.753 132.096C943.687 136.029 945.234 140.494 945.396 145.491H933.79ZM961.051 131.371V120.733H1035.33V131.371H1004.18V219.766H992.192V131.371H961.051ZM1065.83 120.733V219.766H1053.83V120.733H1065.83ZM1169.56 151.681H1157.57C1156.86 148.231 1155.62 145.201 1153.85 142.59C1152.11 139.978 1149.98 137.786 1147.46 136.013C1144.98 134.208 1142.22 132.854 1139.19 131.951C1136.16 131.049 1133 130.597 1129.72 130.597C1123.72 130.597 1118.29 132.112 1113.42 135.143C1108.58 138.173 1104.73 142.638 1101.86 148.537C1099.03 154.437 1097.61 161.674 1097.61 170.249C1097.61 178.824 1099.03 186.062 1101.86 191.961C1104.73 197.86 1108.58 202.325 1113.42 205.356C1118.29 208.386 1123.72 209.901 1129.72 209.901C1133 209.901 1136.16 209.45 1139.19 208.547C1142.22 207.644 1144.98 206.307 1147.46 204.534C1149.98 202.728 1152.11 200.52 1153.85 197.909C1155.62 195.265 1156.86 192.235 1157.57 188.818H1169.56C1168.66 193.879 1167.01 198.408 1164.63 202.406C1162.24 206.403 1159.28 209.804 1155.73 212.609C1152.19 215.381 1148.2 217.493 1143.79 218.944C1139.4 220.394 1134.71 221.12 1129.72 221.12C1121.27 221.12 1113.76 219.056 1107.18 214.93C1100.61 210.804 1095.43 204.936 1091.66 197.328C1087.89 189.72 1086 180.694 1086 170.249C1086 159.804 1087.89 150.778 1091.66 143.17C1095.43 135.562 1100.61 129.695 1107.18 125.568C1113.76 121.442 1121.27 119.379 1129.72 119.379C1134.71 119.379 1139.4 120.104 1143.79 121.555C1148.2 123.005 1152.19 125.133 1155.73 127.938C1159.28 130.71 1162.24 134.095 1164.63 138.092C1167.01 142.058 1168.66 146.587 1169.56 151.681Z" fill="white"/>
<path d="M408.583 294.188V241.427H413.401V289.859H438.544V294.188H408.583ZM462.228 294.188H457.179L476.372 241.427H481.524L500.717 294.188H495.668L479.128 247.687H478.768L462.228 294.188ZM465.861 273.964H492.035V278.292H465.861V273.964ZM519.19 294.188V241.427H536.992C540.427 241.427 543.287 242.028 545.571 243.23C547.872 244.432 549.598 246.073 550.749 248.151C551.9 250.229 552.475 252.59 552.475 255.235C552.475 257.434 552.106 259.314 551.367 260.877C550.629 262.44 549.624 263.702 548.353 264.664C547.082 265.626 545.665 266.322 544.102 266.751V267.163C545.803 267.283 547.451 267.884 549.049 268.966C550.646 270.031 551.96 271.525 552.99 273.449C554.021 275.373 554.536 277.674 554.536 280.353C554.536 283.015 553.943 285.394 552.758 287.489C551.573 289.567 549.753 291.208 547.297 292.41C544.858 293.595 541.749 294.188 537.971 294.188H519.19ZM524.008 289.859H537.971C542.041 289.859 545.047 288.958 546.988 287.154C548.946 285.351 549.925 283.084 549.925 280.353C549.925 278.344 549.435 276.523 548.456 274.892C547.494 273.243 546.129 271.938 544.36 270.976C542.608 270.014 540.547 269.533 538.177 269.533H524.008V289.859ZM524.008 265.257H537.43C539.508 265.257 541.329 264.827 542.892 263.969C544.454 263.11 545.674 261.925 546.55 260.413C547.426 258.902 547.864 257.176 547.864 255.235C547.864 252.436 546.953 250.16 545.133 248.408C543.312 246.639 540.599 245.755 536.992 245.755H524.008V265.257ZM604.24 254.617C603.948 251.68 602.651 249.344 600.349 247.61C598.048 245.875 595.154 245.008 591.668 245.008C589.212 245.008 587.048 245.428 585.176 246.27C583.321 247.112 581.861 248.279 580.796 249.774C579.748 251.251 579.225 252.934 579.225 254.823C579.225 256.214 579.525 257.434 580.126 258.481C580.727 259.529 581.535 260.431 582.548 261.186C583.578 261.925 584.712 262.56 585.948 263.093C587.202 263.625 588.465 264.072 589.735 264.432L595.3 266.03C596.983 266.493 598.666 267.086 600.349 267.807C602.033 268.528 603.57 269.439 604.961 270.538C606.369 271.62 607.494 272.951 608.336 274.531C609.194 276.094 609.624 277.975 609.624 280.173C609.624 282.99 608.894 285.523 607.434 287.773C605.974 290.023 603.879 291.809 601.148 293.131C598.417 294.437 595.146 295.089 591.333 295.089C587.743 295.089 584.626 294.497 581.981 293.312C579.336 292.109 577.258 290.452 575.747 288.34C574.235 286.227 573.385 283.78 573.196 280.997H578.143C578.314 283.075 579.001 284.836 580.204 286.279C581.406 287.721 582.969 288.82 584.892 289.576C586.816 290.315 588.963 290.684 591.333 290.684C593.96 290.684 596.296 290.246 598.34 289.37C600.401 288.477 602.015 287.24 603.183 285.66C604.368 284.063 604.961 282.208 604.961 280.096C604.961 278.309 604.497 276.815 603.57 275.613C602.642 274.394 601.346 273.372 599.68 272.547C598.031 271.723 596.116 270.993 593.935 270.358L587.623 268.503C583.484 267.266 580.272 265.557 577.988 263.376C575.704 261.195 574.562 258.413 574.562 255.029C574.562 252.195 575.317 249.705 576.829 247.558C578.357 245.394 580.418 243.711 583.012 242.509C585.622 241.289 588.55 240.68 591.796 240.68C595.077 240.68 597.979 241.281 600.504 242.483C603.029 243.685 605.03 245.343 606.507 247.455C608.001 249.55 608.799 251.938 608.902 254.617H604.24Z" fill="white"/>
<path d="M198.926 134.102C239.721 134.102 272.793 167.173 272.793 207.969C272.793 248.764 239.721 281.836 198.926 281.836C158.13 281.836 125.059 248.764 125.059 207.969C125.059 167.173 158.13 134.102 198.926 134.102Z" fill="white" stroke="white" stroke-width="2.91503"/>
<path d="M67.1989 274.671C30.6052 202.386 59.9322 112.851 132.246 76.2425C162.52 60.9165 197.144 56.5018 230.285 63.7102L228.893 70.1105C226.397 81.5853 215.04 88.6613 203.305 88.2294C183.149 87.4876 163.008 91.8424 144.807 101.056C86.2017 130.725 62.355 203.525 92.0127 262.11C121.672 320.697 194.439 344.583 253.041 314.917C305.216 288.504 329.85 227.927 313.696 173.598C310.349 162.341 314.329 149.564 324.806 144.26L330.65 141.302C367.257 213.613 337.915 303.123 265.603 339.731C193.286 376.34 103.791 346.953 67.1989 274.671Z" fill="white"/>
<path d="M288.758 16.4261L290.407 61.3951C291.091 80.0879 306.151 95.0552 324.847 95.6252L369.813 97.0033L324.844 98.6524C306.151 99.3371 291.184 114.397 290.614 133.093L289.235 178.058L287.586 133.089C286.902 114.397 271.842 99.4292 253.146 98.8592L208.18 97.4811L253.149 95.832C271.842 95.1473 286.81 80.0878 287.38 61.3915L288.758 16.4261Z" fill="white"/>
</svg>
