<svg width="301" height="308" viewBox="0 0 301 308" fill="none" xmlns="http://www.w3.org/2000/svg">
<path d="M150.294 101.116C181.195 101.116 206.246 126.166 206.246 157.067C206.246 187.969 181.195 213.02 150.294 213.02C119.393 213.019 94.3428 187.969 94.3428 157.067C94.3429 126.166 119.393 101.116 150.294 101.116Z" fill="#7F6CFD" stroke="#7F6CFD" stroke-width="2.20804"/>
<path d="M50.5164 207.592C22.7978 152.838 45.0121 85.0177 99.7873 57.2882C122.719 45.6793 148.946 42.3353 174.049 47.7955L172.994 52.6435C171.104 61.3353 162.502 66.6951 153.613 66.368C138.345 65.8061 123.089 69.1047 109.302 76.0839C64.9105 98.5569 46.8473 153.701 69.3121 198.077C91.7782 242.455 146.897 260.548 191.286 238.076C230.807 218.069 249.466 172.185 237.23 131.032C234.695 122.506 237.71 112.827 245.646 108.809L250.072 106.569C277.801 161.342 255.575 229.143 200.801 256.872C146.024 284.603 78.2338 262.343 50.5164 207.592Z" fill="#7F6CFD"/>
<path d="M218.338 12.438L219.587 46.5006C220.105 60.6598 231.512 71.9971 245.674 72.4288L279.734 73.4727L245.672 74.7218C231.512 75.2404 220.175 86.6475 219.743 100.809L218.7 134.869L217.45 100.807C216.932 86.6475 205.525 75.3102 191.363 74.8784L157.303 73.8346L191.366 72.5855C205.525 72.0668 216.862 60.6597 217.294 46.4978L218.338 12.438Z" fill="black"/>
</svg>
